<?xml version="1.0" encoding="UTF-8"?>
<!--Generator: Apple Native CoreSVG 232.5-->
<!DOCTYPE svg
PUBLIC "-//W3C//DTD SVG 1.1//EN"
       "http://www.w3.org/Graphics/SVG/1.1/DTD/svg11.dtd">
<svg version="1.1" xmlns="http://www.w3.org/2000/svg" xmlns:xlink="http://www.w3.org/1999/xlink" width="3300" height="2200">
 <!--glyph: "uni101BDF.medium", point size: 100.0, font version: "19.0d7e1", template writer version: "128"-->
 <style>.monochrome-0 {-sfsymbols-motion-group:1}
.monochrome-1 {-sfsymbols-motion-group:1}
.monochrome-2 {opacity:0.0;-sfsymbols-clear-behind:true;-sfsymbols-motion-group:0}
.monochrome-3 {-sfsymbols-motion-group:0}

.multicolor-0:tintColor {-sfsymbols-motion-group:1}
.multicolor-1:tintColor {-sfsymbols-motion-group:1}
.multicolor-2:tintColor {opacity:0.0;-sfsymbols-clear-behind:true;-sfsymbols-motion-group:0}
.multicolor-3:tintColor {-sfsymbols-motion-group:0}

.hierarchical-0:primary {-sfsymbols-motion-group:1}
.hierarchical-1:primary {-sfsymbols-motion-group:1}
.hierarchical-2:primary {opacity:0.0;-sfsymbols-clear-behind:true;-sfsymbols-motion-group:0}
.hierarchical-3:primary {-sfsymbols-motion-group:0}

.SFSymbolsPreviewWireframe {fill:none;opacity:1.0;stroke:black;stroke-width:0.5}
</style>
 <g id="Notes">
  <rect height="2200" id="artboard" style="fill:white;opacity:1" width="3300" x="0" y="0"/>
  <line style="fill:none;stroke:black;opacity:1;stroke-width:0.5;" x1="263" x2="3036" y1="292" y2="292"/>
  <text style="stroke:none;fill:black;font-family:sans-serif;font-size:13;font-weight:bold;" transform="matrix(1 0 0 1 263 322)">Weight/Scale Variations</text>
  <text style="stroke:none;fill:black;font-family:sans-serif;font-size:13;text-anchor:middle;" transform="matrix(1 0 0 1 559.711 322)">Ultralight</text>
  <text style="stroke:none;fill:black;font-family:sans-serif;font-size:13;text-anchor:middle;" transform="matrix(1 0 0 1 856.422 322)">Thin</text>
  <text style="stroke:none;fill:black;font-family:sans-serif;font-size:13;text-anchor:middle;" transform="matrix(1 0 0 1 1153.13 322)">Light</text>
  <text style="stroke:none;fill:black;font-family:sans-serif;font-size:13;text-anchor:middle;" transform="matrix(1 0 0 1 1449.84 322)">Regular</text>
  <text style="stroke:none;fill:black;font-family:sans-serif;font-size:13;text-anchor:middle;" transform="matrix(1 0 0 1 1746.56 322)">Medium</text>
  <text style="stroke:none;fill:black;font-family:sans-serif;font-size:13;text-anchor:middle;" transform="matrix(1 0 0 1 2043.27 322)">Semibold</text>
  <text style="stroke:none;fill:black;font-family:sans-serif;font-size:13;text-anchor:middle;" transform="matrix(1 0 0 1 2339.98 322)">Bold</text>
  <text style="stroke:none;fill:black;font-family:sans-serif;font-size:13;text-anchor:middle;" transform="matrix(1 0 0 1 2636.69 322)">Heavy</text>
  <text style="stroke:none;fill:black;font-family:sans-serif;font-size:13;text-anchor:middle;" transform="matrix(1 0 0 1 2933.4 322)">Black</text>
  <line style="fill:none;stroke:black;opacity:1;stroke-width:0.5;" x1="263" x2="3036" y1="1903" y2="1903"/>
  <g transform="matrix(0.2 0 0 0.2 263 1933)">
   <path d="m46.2402 4.15039c21.5332 0 39.4531-17.8711 39.4531-39.4043s-17.9688-39.4043-39.502-39.4043c-21.4844 0-39.3555 17.8711-39.3555 39.4043s17.9199 39.4043 39.4043 39.4043Zm0-7.42188c-17.7246 0-31.8848-14.209-31.8848-31.9824s14.1113-31.9824 31.8359-31.9824c17.7734 0 32.0312 14.209 32.0312 31.9824s-14.209 31.9824-31.9824 31.9824Zm-17.9688-31.9824c0 2.14844 1.51367 3.61328 3.75977 3.61328h10.498v10.5957c0 2.19727 1.46484 3.71094 3.61328 3.71094 2.24609 0 3.71094-1.51367 3.71094-3.71094v-10.5957h10.5957c2.19727 0 3.71094-1.46484 3.71094-3.61328 0-2.19727-1.51367-3.71094-3.71094-3.71094h-10.5957v-10.5469c0-2.24609-1.46484-3.75977-3.71094-3.75977-2.14844 0-3.61328 1.51367-3.61328 3.75977v10.5469h-10.498c-2.24609 0-3.75977 1.51367-3.75977 3.71094Z"/>
  </g>
  <g transform="matrix(0.2 0 0 0.2 281.506 1933)">
   <path d="m58.5449 14.5508c27.2461 0 49.8047-22.6074 49.8047-49.8047 0-27.2461-22.6074-49.8047-49.8535-49.8047-27.1973 0-49.7559 22.5586-49.7559 49.8047 0 27.1973 22.6074 49.8047 49.8047 49.8047Zm0-8.30078c-23.0469 0-41.4551-18.457-41.4551-41.5039s18.3594-41.5039 41.4062-41.5039 41.5527 18.457 41.5527 41.5039-18.457 41.5039-41.5039 41.5039Zm-22.6562-41.5039c0 2.39258 1.66016 4.00391 4.15039 4.00391h14.3555v14.4043c0 2.44141 1.66016 4.15039 4.05273 4.15039 2.44141 0 4.15039-1.66016 4.15039-4.15039v-14.4043h14.4043c2.44141 0 4.15039-1.61133 4.15039-4.00391 0-2.44141-1.70898-4.15039-4.15039-4.15039h-14.4043v-14.3555c0-2.49023-1.70898-4.19922-4.15039-4.19922-2.39258 0-4.05273 1.70898-4.05273 4.19922v14.3555h-14.3555c-2.49023 0-4.15039 1.70898-4.15039 4.15039Z"/>
  </g>
  <g transform="matrix(0.2 0 0 0.2 304.924 1933)">
   <path d="m74.8535 28.3203c34.8145 0 63.623-28.8086 63.623-63.5742 0-34.8145-28.8574-63.623-63.6719-63.623-34.7656 0-63.5254 28.8086-63.5254 63.623 0 34.7656 28.8086 63.5742 63.5742 63.5742Zm0-9.08203c-30.1758 0-54.4434-24.3164-54.4434-54.4922 0-30.2246 24.2188-54.4922 54.3945-54.4922 30.2246 0 54.541 24.2676 54.541 54.4922 0 30.1758-24.2676 54.4922-54.4922 54.4922Zm-28.8574-54.4922c0 2.58789 1.85547 4.39453 4.58984 4.39453h19.7266v19.7754c0 2.68555 1.85547 4.58984 4.44336 4.58984 2.68555 0 4.54102-1.85547 4.54102-4.58984v-19.7754h19.7754c2.68555 0 4.58984-1.80664 4.58984-4.39453 0-2.73438-1.85547-4.58984-4.58984-4.58984h-19.7754v-19.7266c0-2.73438-1.85547-4.63867-4.54102-4.63867-2.58789 0-4.44336 1.9043-4.44336 4.63867v19.7266h-19.7266c-2.73438 0-4.58984 1.85547-4.58984 4.58984Z"/>
  </g>
  <text style="stroke:none;fill:black;font-family:sans-serif;font-size:13;font-weight:bold;" transform="matrix(1 0 0 1 263 1953)">Design Variations</text>
  <text style="stroke:none;fill:black;font-family:sans-serif;font-size:13;" transform="matrix(1 0 0 1 263 1971)">Symbols are supported in up to nine weights and three scales.</text>
  <text style="stroke:none;fill:black;font-family:sans-serif;font-size:13;" transform="matrix(1 0 0 1 263 1989)">For optimal layout with text and other symbols, vertically align</text>
  <text style="stroke:none;fill:black;font-family:sans-serif;font-size:13;" transform="matrix(1 0 0 1 263 2007)">symbols with the adjacent text.</text>
  <line style="fill:none;stroke:#00AEEF;stroke-width:0.5;opacity:1.0;" x1="776" x2="776" y1="1919" y2="1933"/>
  <g transform="matrix(0.2 0 0 0.2 776 1933)">
   <path d="m16.5527 0.78125c2.58789 0 3.85742-0.976562 4.78516-3.71094l6.29883-17.2363h28.8086l6.29883 17.2363c0.927734 2.73438 2.19727 3.71094 4.73633 3.71094 2.58789 0 4.24805-1.5625 4.24805-4.00391 0-0.830078-0.146484-1.61133-0.537109-2.63672l-22.9004-60.9863c-1.12305-2.97852-3.125-4.49219-6.25-4.49219-3.02734 0-5.07812 1.46484-6.15234 4.44336l-22.9004 61.084c-0.390625 1.02539-0.537109 1.80664-0.537109 2.63672 0 2.44141 1.5625 3.95508 4.10156 3.95508Zm13.4766-28.3691 11.8652-32.8613h0.244141l11.8652 32.8613Z"/>
  </g>
  <line style="fill:none;stroke:#00AEEF;stroke-width:0.5;opacity:1.0;" x1="792.836" x2="792.836" y1="1919" y2="1933"/>
  <text style="stroke:none;fill:black;font-family:sans-serif;font-size:13;font-weight:bold;" transform="matrix(1 0 0 1 776 1953)">Margins</text>
  <text style="stroke:none;fill:black;font-family:sans-serif;font-size:13;" transform="matrix(1 0 0 1 776 1971)">Leading and trailing margins on the left and right side of each symbol</text>
  <text style="stroke:none;fill:black;font-family:sans-serif;font-size:13;" transform="matrix(1 0 0 1 776 1989)">can be adjusted by modifying the x-location of the margin guidelines.</text>
  <text style="stroke:none;fill:black;font-family:sans-serif;font-size:13;" transform="matrix(1 0 0 1 776 2007)">Modifications are automatically applied proportionally to all</text>
  <text style="stroke:none;fill:black;font-family:sans-serif;font-size:13;" transform="matrix(1 0 0 1 776 2025)">scales and weights.</text>
  <g transform="matrix(0.2 0 0 0.2 1289 1933)">
   <path d="m14.209 9.32617 8.49609 8.54492c4.29688 4.3457 9.22852 4.05273 13.8672-1.07422l53.4668-58.9355-4.83398-4.88281-53.0762 58.3984c-1.75781 2.00195-3.41797 2.49023-5.76172 0.146484l-5.85938-5.81055c-2.34375-2.29492-1.80664-4.00391 0.195312-5.81055l57.373-54.0039-4.88281-4.83398-57.959 54.4434c-4.93164 4.58984-5.32227 9.47266-1.02539 13.8184Zm32.0801-90.9668c-2.09961 2.05078-2.24609 4.93164-1.07422 6.88477 1.17188 1.80664 3.4668 2.97852 6.68945 2.14844 7.32422-1.70898 14.9414-2.00195 22.0703 2.68555l-2.92969 7.27539c-1.70898 4.15039-0.830078 7.08008 1.85547 9.81445l11.4746 11.5723c2.44141 2.44141 4.49219 2.53906 7.32422 2.05078l5.32227-0.976562 3.32031 3.36914-0.195312 2.7832c-0.195312 2.49023 0.439453 4.39453 2.88086 6.78711l3.80859 3.71094c2.39258 2.39258 5.46875 2.53906 7.8125 0.195312l14.5508-14.5996c2.34375-2.34375 2.24609-5.32227-0.146484-7.71484l-3.85742-3.80859c-2.39258-2.39258-4.24805-3.17383-6.64062-2.97852l-2.88086 0.244141-3.22266-3.17383 1.2207-5.61523c0.634766-2.83203-0.146484-5.0293-3.07617-7.95898l-10.9863-10.9375c-16.6992-16.6016-38.8672-16.2109-53.3203-1.75781Zm7.4707 1.85547c12.1582-8.88672 28.6133-7.37305 39.7461 3.75977l12.1582 12.0605c1.17188 1.17188 1.36719 2.09961 1.02539 3.80859l-1.61133 7.42188 7.51953 7.42188 4.93164-0.292969c1.26953-0.0488281 1.66016 0.0488281 2.63672 1.02539l2.88086 2.88086-12.207 12.207-2.88086-2.88086c-0.976562-0.976562-1.12305-1.36719-1.07422-2.68555l0.341797-4.88281-7.4707-7.42188-7.61719 1.26953c-1.61133 0.341797-2.34375 0.195312-3.56445-0.976562l-10.0098-10.0098c-1.26953-1.17188-1.41602-2.00195-0.634766-3.85742l4.39453-10.4492c-7.8125-7.27539-17.9688-10.4004-28.125-7.42188-0.78125 0.195312-1.07422-0.439453-0.439453-0.976562Z"/>
  </g>
  <text style="stroke:none;fill:black;font-family:sans-serif;font-size:13;font-weight:bold;" transform="matrix(1 0 0 1 1289 1953)">Exporting</text>
  <text style="stroke:none;fill:black;font-family:sans-serif;font-size:13;" transform="matrix(1 0 0 1 1289 1971)">Symbols should be outlined when exporting to ensure the</text>
  <text style="stroke:none;fill:black;font-family:sans-serif;font-size:13;" transform="matrix(1 0 0 1 1289 1989)">design is preserved when submitting to Xcode.</text>
  <text id="template-version" style="stroke:none;fill:black;font-family:sans-serif;font-size:13;text-anchor:end;" transform="matrix(1 0 0 1 3036 1933)">Template v.5.0</text>
  <text style="stroke:none;fill:black;font-family:sans-serif;font-size:13;text-anchor:end;" transform="matrix(1 0 0 1 3036 1951)">Requires Xcode 15 or greater</text>
  <text id="descriptive-name" style="stroke:none;fill:black;font-family:sans-serif;font-size:13;text-anchor:end;" transform="matrix(1 0 0 1 3036 1969)">Generated from figure.2.and.child.holdinghands</text>
  <text style="stroke:none;fill:black;font-family:sans-serif;font-size:13;text-anchor:end;" transform="matrix(1 0 0 1 3036 1987)">Typeset at 100.0 points</text>
  <text style="stroke:none;fill:black;font-family:sans-serif;font-size:13;" transform="matrix(1 0 0 1 263 726)">Small</text>
  <text style="stroke:none;fill:black;font-family:sans-serif;font-size:13;" transform="matrix(1 0 0 1 263 1156)">Medium</text>
  <text style="stroke:none;fill:black;font-family:sans-serif;font-size:13;" transform="matrix(1 0 0 1 263 1586)">Large</text>
 </g>
 <g id="Guides">
  <g id="H-reference" style="fill:#27AAE1;stroke:none;" transform="matrix(1 0 0 1 339 696)">
   <path d="M0.993654 0L3.63775 0L29.3281-67.1323L30.0303-67.1323L30.0303-70.459L28.1226-70.459ZM11.6885-24.4799L46.9815-24.4799L46.2315-26.7285L12.4385-26.7285ZM55.1196 0L57.7637 0L30.6382-70.459L29.4326-70.459L29.4326-67.1323Z"/>
  </g>
  <line id="Baseline-S" style="fill:none;stroke:#27AAE1;opacity:1;stroke-width:0.5;" x1="263" x2="3036" y1="696" y2="696"/>
  <line id="Capline-S" style="fill:none;stroke:#27AAE1;opacity:1;stroke-width:0.5;" x1="263" x2="3036" y1="625.541" y2="625.541"/>
  <g id="H-reference" style="fill:#27AAE1;stroke:none;" transform="matrix(1 0 0 1 339 1126)">
   <path d="M0.993654 0L3.63775 0L29.3281-67.1323L30.0303-67.1323L30.0303-70.459L28.1226-70.459ZM11.6885-24.4799L46.9815-24.4799L46.2315-26.7285L12.4385-26.7285ZM55.1196 0L57.7637 0L30.6382-70.459L29.4326-70.459L29.4326-67.1323Z"/>
  </g>
  <line id="Baseline-M" style="fill:none;stroke:#27AAE1;opacity:1;stroke-width:0.5;" x1="263" x2="3036" y1="1126" y2="1126"/>
  <line id="Capline-M" style="fill:none;stroke:#27AAE1;opacity:1;stroke-width:0.5;" x1="263" x2="3036" y1="1055.54" y2="1055.54"/>
  <g id="H-reference" style="fill:#27AAE1;stroke:none;" transform="matrix(1 0 0 1 339 1556)">
   <path d="M0.993654 0L3.63775 0L29.3281-67.1323L30.0303-67.1323L30.0303-70.459L28.1226-70.459ZM11.6885-24.4799L46.9815-24.4799L46.2315-26.7285L12.4385-26.7285ZM55.1196 0L57.7637 0L30.6382-70.459L29.4326-70.459L29.4326-67.1323Z"/>
  </g>
  <line id="Baseline-L" style="fill:none;stroke:#27AAE1;opacity:1;stroke-width:0.5;" x1="263" x2="3036" y1="1556" y2="1556"/>
  <line id="Capline-L" style="fill:none;stroke:#27AAE1;opacity:1;stroke-width:0.5;" x1="263" x2="3036" y1="1485.54" y2="1485.54"/>
  <line id="left-margin-Ultralight-S" style="fill:none;stroke:#00AEEF;stroke-width:0.5;opacity:1.0;" x1="497.391" x2="497.391" y1="600.785" y2="720.121"/>
  <line id="right-margin-Ultralight-S" style="fill:none;stroke:#00AEEF;stroke-width:0.5;opacity:1.0;" x1="622.031" x2="622.031" y1="600.785" y2="720.121"/>
  <line id="left-margin-Regular-S" style="fill:none;stroke:#00AEEF;stroke-width:0.5;opacity:1.0;" x1="1381.49" x2="1381.49" y1="600.785" y2="720.121"/>
  <line id="right-margin-Regular-S" style="fill:none;stroke:#00AEEF;stroke-width:0.5;opacity:1.0;" x1="1518.2" x2="1518.2" y1="600.785" y2="720.121"/>
  <line id="left-margin-Black-S" style="fill:none;stroke:#00AEEF;stroke-width:0.5;opacity:1.0;" x1="2860.82" x2="2860.82" y1="600.785" y2="720.121"/>
  <line id="right-margin-Black-S" style="fill:none;stroke:#00AEEF;stroke-width:0.5;opacity:1.0;" x1="3005.98" x2="3005.98" y1="600.785" y2="720.121"/>
 </g>
 <g id="Symbols">
  <g id="Black-S" transform="matrix(1 0 0 1 2860.82 696)">
   <path class="monochrome-0 multicolor-0:tintColor hierarchical-0:primary SFSymbolsPreviewWireframe" d="M107.227-63.623C112.598-63.623 116.992-68.0176 116.992-73.3887C116.992-78.7598 112.598-83.1543 107.227-83.1543C101.855-83.1543 97.4609-78.7598 97.4609-73.3887C97.4609-68.0176 101.855-63.623 107.227-63.623ZM107.227-23.5352C108.398-23.5352 108.789-22.8516 109.766-20.0195C111.133-15.9668 115.186 1.02539 116.553 6.00586C117.383 8.88672 119.043 10.1562 121.24 10.1562C124.365 10.1562 126.318 7.32422 125.488 4.24805C125.195 3.22266 119.336-21.3867 118.457-26.4648C117.822-30.1758 117.676-37.3047 117.627-42.1875C117.627-42.627 118.115-42.7734 118.359-42.4316C121.582-37.7441 126.123-31.3477 127.197-30.127C128.662-28.5156 131.006-28.2227 132.861-29.2969C135.352-30.6641 135.986-33.3496 134.863-35.2539C134.57-35.8398 134.082-36.4746 133.74-37.0117L122.949-53.0762C119.824-57.7148 115.869-60.4492 107.227-60.4492C98.584-60.4492 94.6289-57.7148 91.5039-53.0762L80.7129-37.0117C80.3711-36.4746 79.8828-35.8398 79.5898-35.2539C78.4668-33.3496 79.1016-30.6641 81.5918-29.2969C83.4473-28.2227 85.791-28.5156 87.2559-30.127C88.3301-31.3477 92.8711-37.7441 96.0938-42.4316C96.3379-42.7734 96.8262-42.627 96.8262-42.1875C96.7773-37.3047 96.6309-30.1758 95.9961-26.4648C95.1172-21.3867 89.2578 3.22266 88.9648 4.24805C88.1348 7.32422 90.0879 10.1562 93.2129 10.1562C95.4102 10.1562 97.0703 8.88672 97.9004 6.00586C99.2676 1.02539 103.32-15.9668 104.688-20.0195C105.664-22.8516 106.055-23.5352 107.227-23.5352Z"/>
   <path class="monochrome-1 multicolor-1:tintColor hierarchical-1:primary SFSymbolsPreviewWireframe" d="M37.9395-63.623C43.3105-63.623 47.7051-68.0176 47.7051-73.3887C47.7051-78.7598 43.3105-83.1543 37.9395-83.1543C32.5684-83.1543 28.1738-78.7598 28.1738-73.3887C28.1738-68.0176 32.5684-63.623 37.9395-63.623ZM37.9395-23.5352C39.1113-23.5352 39.502-22.8516 40.4785-20.0195C41.8457-15.9668 45.8984 1.02539 47.2656 6.00586C48.0957 8.88672 49.7559 10.1562 51.9531 10.1562C55.0781 10.1562 57.0312 7.32422 56.2012 4.24805C55.9082 3.22266 50.0488-21.3867 49.1699-26.4648C48.5352-30.1758 48.3887-37.3047 48.3398-42.1875C48.3398-42.627 48.8281-42.7734 49.0723-42.4316C52.2949-37.7441 56.8359-31.3477 57.9102-30.127C59.375-28.5156 61.7188-28.2227 63.5742-29.2969C66.0645-30.6641 66.6992-33.3496 65.5762-35.2539C65.2832-35.8398 64.7949-36.4746 64.4531-37.0117L53.6621-53.0762C50.5371-57.7148 46.582-60.4492 37.9395-60.4492C29.2969-60.4492 25.3418-57.7148 22.2168-53.0762L11.4258-37.0117C11.084-36.4746 10.5957-35.8398 10.3027-35.2539C9.17969-33.3496 9.81445-30.6641 12.3047-29.2969C14.1602-28.2227 16.5039-28.5156 17.9688-30.127C19.043-31.3477 23.584-37.7441 26.8066-42.4316C27.0508-42.7734 27.5391-42.627 27.5391-42.1875C27.4902-37.3047 27.3438-30.1758 26.709-26.4648C25.8301-21.3867 19.9707 3.22266 19.6777 4.24805C18.8477 7.32422 20.8008 10.1562 23.9258 10.1562C26.123 10.1562 27.7832 8.88672 28.6133 6.00586C29.9805 1.02539 34.0332-15.9668 35.4004-20.0195C36.377-22.8516 36.7676-23.5352 37.9395-23.5352Z"/>
   <path class="monochrome-2 multicolor-2:tintColor hierarchical-2:primary SFSymbolsPreviewWireframe" d="M63.3789 13.0859C66.6992 13.0859 69.3359 10.9375 70.2148 7.4707C70.7031 5.71289 71.6309 1.9043 72.5586-1.66016C73.4863 1.9043 74.4141 5.71289 74.9023 7.4707C75.7812 10.9375 78.418 13.0859 81.7383 13.0859C86.4746 13.0859 89.5508 8.59375 88.2812 4.05273C88.0859 3.36914 84.375-12.1582 83.8379-15.5273C83.4473-18.0176 83.3496-22.1191 83.3496-24.2676C83.3496-24.6582 83.4961-24.9023 83.7891-25.293C86.1328-28.0762 88.4277-30.8105 90.7715-33.5938C93.3594-36.6699 93.3105-40.8203 90.6738-43.457C87.793-46.2402 83.3496-46.2402 80.957-43.6523L76.123-38.4277C74.6094-36.7676 74.2676-36.5723 72.5586-36.5723C70.8496-36.5723 70.5078-36.7676 68.9941-38.4277L64.1602-43.6523C61.7676-46.2402 57.3242-46.2402 54.4434-43.457C51.8066-40.8203 51.7578-36.6699 54.3457-33.5938C56.6895-30.8105 58.9844-28.0762 61.3281-25.293C61.6699-24.9023 61.7676-24.6582 61.7676-24.2676C61.7676-22.1191 61.6699-18.0176 61.2793-15.5273C60.7422-12.1582 57.0312 3.36914 56.8359 4.05273C55.5664 8.59375 58.6426 13.0859 63.3789 13.0859Z"/>
   <path class="monochrome-3 multicolor-3:tintColor hierarchical-3:primary SFSymbolsPreviewWireframe" d="M72.5098-37.793C76.6113-37.793 79.8828-41.0645 79.8828-45.166C79.8828-49.2676 76.6113-52.5879 72.5098-52.5879C68.4082-52.5879 65.0879-49.2676 65.0879-45.166C65.0879-41.0645 68.4082-37.793 72.5098-37.793ZM63.3789 10.1562C65.2344 10.1562 66.7969 9.08203 67.3828 6.68945C68.3105 3.4668 70.9473-7.66602 71.875-10.3516C72.0703-10.9863 72.2656-11.1816 72.5586-11.1816C72.8516-11.1816 73.0469-10.9863 73.2422-10.3516C74.1699-7.66602 76.8066 3.4668 77.7344 6.68945C78.3203 9.08203 79.8828 10.1562 81.7383 10.1562C84.4727 10.1562 86.2305 7.61719 85.498 4.98047C85.4004 4.6875 81.4941-11.6699 80.957-15.0391C80.5176-17.7246 80.4199-22.0703 80.4199-24.2676C80.4199-25.4395 80.7129-26.2695 81.2988-26.9043C84.4727-30.7129 88.623-35.5469 89.1602-36.2793C90.2344-37.9395 89.9414-40.0391 88.623-41.3574C86.9629-42.9688 84.375-43.0176 83.1055-41.6504L78.2715-36.4258C76.416-34.4238 75-33.6426 72.5586-33.6426C70.1172-33.6426 68.7012-34.4238 66.8457-36.4258L62.0117-41.6504C60.7422-43.0176 58.1543-42.9688 56.4941-41.3574C55.1758-40.0391 54.8828-37.9395 55.957-36.2793C56.4941-35.5469 60.6445-30.7129 63.8184-26.9043C64.4043-26.2695 64.6973-25.4395 64.6973-24.2676C64.6973-22.0703 64.5996-17.7246 64.1602-15.0391C63.623-11.6699 59.7168 4.6875 59.6191 4.98047C58.8867 7.61719 60.6445 10.1562 63.3789 10.1562Z"/>
  </g>
  <g id="Regular-S" transform="matrix(1 0 0 1 1381.49 696)">
   <path class="monochrome-0 multicolor-0:tintColor hierarchical-0:primary SFSymbolsPreviewWireframe" d="M100.732-62.5C105.42-62.5 109.229-66.2598 109.229-70.9961C109.229-75.6836 105.42-79.4434 100.732-79.4434C96.0449-79.4434 92.2363-75.6836 92.2363-70.9961C92.2363-66.2598 96.0449-62.5 100.732-62.5ZM100.732-24.7559C102.295-24.7559 102.881-23.6816 103.809-20.8984C105.176-16.9922 109.033-0.683594 110.352 4.05273C111.035 6.54297 112.305 7.51953 114.16 7.51953C116.65 7.51953 118.213 5.22461 117.48 2.7832C117.188 1.75781 111.572-21.8262 110.791-26.709C110.107-30.8105 109.961-38.9648 109.961-43.457C109.961-44.0918 110.693-44.3359 111.035-43.7988C114.111-39.502 119.287-32.0801 120.361-30.8594C121.533-29.541 123.34-29.2969 124.902-30.1758C126.953-31.2988 127.393-33.4473 126.562-34.9121C126.27-35.4492 125.879-36.0352 125.488-36.5723L115.234-51.8066C112.256-56.2012 108.545-58.5938 100.732-58.5938C92.9199-58.5938 89.209-56.2012 86.2305-51.8066L75.9766-36.5723C75.5859-36.0352 75.1953-35.4492 74.9023-34.9121C74.0723-33.4473 74.5117-31.2988 76.5625-30.1758C78.125-29.2969 79.9316-29.541 81.1035-30.8594C82.1777-32.0801 87.3535-39.4531 90.4297-43.7988C90.7715-44.2871 91.5039-44.0918 91.5039-43.4082C91.5039-38.916 91.3574-30.8105 90.6738-26.709C89.8926-21.8262 84.2773 1.75781 83.9844 2.7832C83.252 5.22461 84.8145 7.51953 87.3047 7.51953C89.1602 7.51953 90.4297 6.54297 91.1133 4.05273C92.4316-0.683594 96.2891-16.9922 97.6562-20.8984C98.584-23.6816 99.1699-24.7559 100.732-24.7559Z"/>
   <path class="monochrome-1 multicolor-1:tintColor hierarchical-1:primary SFSymbolsPreviewWireframe" d="M35.9863-62.5C40.6738-62.5 44.4336-66.2598 44.4336-70.9961C44.4336-75.6836 40.6738-79.4434 35.9863-79.4434C31.2988-79.4434 27.4902-75.6836 27.4902-70.9961C27.4902-66.2598 31.2988-62.5 35.9863-62.5ZM35.9863-24.7559C37.5488-24.7559 38.1348-23.6816 39.0625-20.8984C40.3809-16.9922 44.2871-0.683594 45.6055 4.05273C46.2891 6.54297 47.5586 7.51953 49.3652 7.51953C51.9043 7.51953 53.4668 5.22461 52.7344 2.7832C52.4414 1.75781 46.8262-21.8262 46.0449-26.709C45.3613-30.8105 45.2148-38.9648 45.2148-43.457C45.2148-44.0918 45.8984-44.3359 46.2891-43.7988C49.3652-39.502 54.541-32.0801 55.5664-30.8594C56.7383-29.541 58.5938-29.2969 60.1562-30.1758C62.1582-31.2988 62.5977-33.4473 61.8164-34.9121C61.4746-35.4492 61.084-36.0352 60.7422-36.5723L50.4883-51.8066C47.4609-56.2012 43.7988-58.5938 35.9863-58.5938C28.125-58.5938 24.4629-56.2012 21.4844-51.8066L11.1816-36.5723C10.8398-36.0352 10.4492-35.4492 10.1562-34.9121C9.32617-33.4473 9.76562-31.2988 11.8164-30.1758C13.3301-29.2969 15.1855-29.541 16.3574-30.8594C17.4316-32.0801 22.6074-39.4531 25.6348-43.7988C25.9766-44.2871 26.7578-44.0918 26.7578-43.4082C26.7578-38.916 26.6113-30.8105 25.9277-26.709C25.0977-21.8262 19.5312 1.75781 19.2383 2.7832C18.5059 5.22461 20.0684 7.51953 22.5586 7.51953C24.4141 7.51953 25.6836 6.54297 26.3184 4.05273C27.6367-0.683594 31.543-16.9922 32.9102-20.8984C33.8379-23.6816 34.4238-24.7559 35.9863-24.7559Z"/>
   <path class="monochrome-2 multicolor-2:tintColor hierarchical-2:primary SFSymbolsPreviewWireframe" d="M60.1074 10.4492C63.0859 10.4492 65.3809 8.49609 66.1621 5.46875C66.6504 3.80859 67.5293 0.244141 68.3594-3.125C69.1895 0.244141 70.0684 3.80859 70.5566 5.46875C71.2891 8.49609 73.584 10.4492 76.6113 10.4492C80.7617 10.4492 83.4473 6.49414 82.4219 2.58789C82.2754 2.24609 78.9062-12.207 78.3691-15.2344C78.0273-17.4316 77.9297-22.0703 77.9297-23.9746C77.9297-24.3164 77.9297-24.3652 78.2715-24.707C80.6152-27.6855 83.6426-31.1035 84.7656-32.5684C86.9141-35.1562 86.5723-38.5742 84.4238-40.8691C82.0801-43.457 78.0273-43.4082 75.8301-41.0645L71.6309-36.6699C70.2637-35.1074 69.9219-34.9121 68.3594-34.9121C66.7969-34.9121 66.4551-35.1074 65.0391-36.6699L60.8887-41.0645C58.6914-43.4082 54.5898-43.457 52.2949-40.8691C50.1465-38.5742 49.8047-35.1562 51.9043-32.5684C53.0762-31.1035 56.1035-27.6855 58.4473-24.707C58.7891-24.3652 58.7891-24.3164 58.7891-23.9746C58.7891-22.0703 58.6914-17.4316 58.3496-15.2344C57.8125-12.207 54.3945 2.24609 54.248 2.58789C53.2227 6.49414 55.9082 10.4492 60.1074 10.4492Z"/>
   <path class="monochrome-3 multicolor-3:tintColor hierarchical-3:primary SFSymbolsPreviewWireframe" d="M68.3594-35.7422C71.7773-35.7422 74.6582-38.5742 74.6582-42.041C74.6582-45.459 71.7773-48.291 68.3594-48.291C64.8926-48.291 62.1094-45.459 62.1094-42.041C62.1094-38.5742 64.8926-35.7422 68.3594-35.7422ZM60.1074 7.51953C61.5723 7.51953 62.8418 6.64062 63.3301 4.6875C64.1602 1.80664 66.5527-8.25195 67.334-10.6934C67.8711-12.3047 67.9688-12.4023 68.3594-12.4023C68.75-12.4023 68.8477-12.3047 69.3848-10.6934C70.166-8.25195 72.5586 1.80664 73.3887 4.6875C73.8281 6.64062 75.0977 7.51953 76.6113 7.51953C78.8086 7.51953 80.127 5.41992 79.5898 3.41797C79.3945 2.73438 76.0254-11.7188 75.4883-14.7461C75.0977-17.1387 75-22.0215 75-23.9746C75-25.0977 75.3418-25.8301 75.9766-26.5625C78.7598-30.0781 82.3242-34.082 82.7637-34.7656C83.6914-36.084 83.3496-37.7441 82.2754-38.8672C81.0547-40.2344 79.0039-40.1855 77.9297-39.0625L73.7793-34.668C72.1191-32.8125 70.7031-31.9824 68.3594-31.9824C66.0156-31.9824 64.5996-32.8125 62.8906-34.668L58.7891-39.0625C57.7148-40.1855 55.6152-40.2344 54.4434-38.8672C53.3691-37.7441 53.0273-36.084 53.9551-34.7656C54.3945-34.082 57.9102-30.0781 60.7422-26.5625C61.377-25.8301 61.7188-25.0977 61.7188-23.9746C61.7188-22.0215 61.6211-17.1387 61.2305-14.7461C60.6934-11.7188 57.2754 2.73438 57.0801 3.41797C56.543 5.41992 57.8613 7.51953 60.1074 7.51953Z"/>
  </g>
  <g id="Ultralight-S" transform="matrix(1 0 0 1 497.391 696)">
   <path class="monochrome-0 multicolor-0:tintColor hierarchical-0:primary SFSymbolsPreviewWireframe" d="M91.4688-59.3213C95.5206-59.3213 98.7389-62.4908 98.7389-66.5913C98.7389-70.7339 95.5206-73.858 91.4688-73.858C87.3717-73.858 84.1988-70.7339 84.1988-66.5913C84.1988-62.4908 87.3717-59.3213 91.4688-59.3213ZM91.4688-25.6186C93.0313-25.6186 93.7989-24.499 94.4996-21.9883C95.4581-18.3545 99.2701-3.40818 100.498 0.964868C101.045 2.95559 102.087 3.93216 103.716 3.93216C105.843 3.93216 107.133 2.00051 106.582-0.123024C106.335-1.0576 100.992-22.6435 100.438-27.1177C99.8902-31.6279 99.6075-41.5986 99.6075-43.5479C99.6075-44.001 100.158-44.1997 100.5-43.7534C102.532-40.9551 108.253-33.0337 109.145-31.8584C110.181-30.54 111.851-30.2959 113.187-31.0386C114.829-31.8892 115.268-33.6289 114.529-35.0029C114.145-35.6763 113.709-36.2622 113.137-37.1172L104.926-48.9004C101.04-54.4756 96.1935-54.961 91.4688-54.961C86.6988-54.961 81.898-54.4756 77.9659-48.9004L69.7554-37.1172C69.1832-36.2622 68.7471-35.6763 68.3633-35.0029C67.6241-33.6289 68.0635-31.8892 69.7056-31.0386C71.0865-30.2959 72.7569-30.54 73.7925-31.8584C74.6397-33.0337 80.3604-40.9516 82.3922-43.7534C82.734-44.1963 83.2847-44.001 83.2847-43.5444C83.2847-41.5952 83.002-31.6279 82.4547-27.1177C81.9005-22.6435 76.5577-1.0576 76.3101-0.123024C75.7593 2.00051 77.0494 3.93216 79.1763 3.93216C80.8048 3.93216 81.8472 2.95559 82.3946 0.964868C83.6221-3.40818 87.4342-18.3545 88.4381-21.9883C89.1387-24.499 89.9063-25.6186 91.4688-25.6186Z"/>
   <path class="monochrome-1 multicolor-1:tintColor hierarchical-1:primary SFSymbolsPreviewWireframe" d="M33.2163-59.3213C37.2681-59.3213 40.4829-62.4908 40.4829-66.5913C40.4829-70.7339 37.2681-73.858 33.2163-73.858C29.1192-73.858 25.9463-70.7339 25.9463-66.5913C25.9463-62.4908 29.1192-59.3213 33.2163-59.3213ZM33.2163-25.6186C34.7788-25.6186 35.5464-24.499 36.2471-21.9883C37.2476-18.3545 41.0176-3.40818 42.2451 0.964868C42.7925 2.95559 43.835 3.93216 45.46 3.93216C47.5904 3.93216 48.8804 2.00051 48.3296-0.123024C48.0821-1.0576 42.7393-22.6435 42.1851-27.1177C41.6377-31.6279 41.355-41.5986 41.355-43.5479C41.355-44.001 41.9024-44.1997 42.2476-43.7534C44.3247-40.9551 50-33.0337 50.8892-31.8584C51.9248-30.54 53.5987-30.2959 54.9795-31.0386C56.5728-31.8892 57.0123-33.6289 56.2764-35.0029C55.8892-35.6763 55.4532-36.2622 54.8843-37.1172L46.6739-48.9004C42.7837-54.4756 37.941-54.961 33.2163-54.961C28.4429-54.961 23.6455-54.4756 19.7134-48.9004L11.4995-37.1172C10.9307-36.2622 10.4946-35.6763 10.1108-35.0029C9.37158-33.6289 9.81103-31.8892 11.4531-31.0386C12.8306-30.2959 14.5044-30.54 15.54-31.8584C16.4326-33.0337 22.1079-40.9516 24.1362-43.7534C24.478-44.1963 25.0322-44.001 25.0322-43.5444C25.0322-41.5952 24.7495-31.6279 24.2022-27.1177C23.6445-22.6435 18.3052-1.0576 18.0576-0.123024C17.5523 2.00051 18.7969 3.93216 20.9238 3.93216C22.5523 3.93216 23.5947 2.95559 24.1387 0.964868C25.3662-3.40818 29.1817-18.3545 30.1856-21.9883C30.8863-24.499 31.6538-25.6186 33.2163-25.6186Z"/>
   <path class="monochrome-2 multicolor-2:tintColor hierarchical-2:primary SFSymbolsPreviewWireframe" d="M54.7945 6.86184C57.5459 6.86184 59.6592 5.09036 60.3497 2.38088C60.7925 0.902367 61.5806-2.29881 62.3199-5.30467C63.0591-2.29881 63.8472 0.902367 64.2901 2.38088C64.9771 5.09036 67.0904 6.86184 69.8453 6.86184C73.6778 6.86184 76.2271 3.27004 75.1563-0.318336C75.0552-0.614724 71.9586-13.7056 71.4669-16.5058C71.1705-18.5669 71.0728-22.706 71.0728-24.4287C71.0728-24.6797 71.1636-24.8647 71.3692-25.1157C73.7129-27.958 76.6041-31.2852 77.5455-32.5229C79.2398-34.8384 78.8526-37.8023 76.9312-39.7793C74.8599-42.1856 71.1705-42.2275 69.064-40.0654L65.3189-36.0796C63.9971-34.6533 63.6553-34.458 62.3199-34.458C60.9844-34.458 60.6426-34.6533 59.3174-36.0796L55.5757-40.0654C53.5147-42.2275 49.8218-42.1856 47.7085-39.7793C45.7871-37.8023 45.3999-34.793 47.1817-32.4775C48.1719-31.1943 51.063-27.9126 53.316-25.1157C53.4761-24.8647 53.6123-24.6797 53.6123-24.4287C53.6123-22.706 53.5147-18.5669 53.2183-16.5058C52.7266-13.7056 49.6265-0.614724 49.5254-0.318336C48.4546 3.27004 51.0039 6.86184 54.7945 6.86184Z"/>
   <path class="monochrome-3 multicolor-3:tintColor hierarchical-3:primary SFSymbolsPreviewWireframe" d="M62.3199-34.4707C65.3746-34.4707 67.8467-36.9395 67.8467-39.9976C67.8467-43.0069 65.3746-45.4756 62.3199-45.4756C59.2618-45.4756 56.8418-43.0069 56.8418-39.9976C56.8418-36.9395 59.2618-34.4707 62.3199-34.4707ZM54.7945 3.93216C56.0777 3.93216 57.1202 3.23489 57.5176 1.59963C58.3023-1.05418 60.4678-10.2046 61.1583-12.4643C61.6954-13.9849 61.8384-14.1733 62.3199-14.1733C62.8013-14.1733 62.9444-13.9849 63.4815-12.4643C64.1719-10.2046 66.3375-1.05418 67.1221 1.59963C67.5162 3.23489 68.5586 3.93216 69.8453 3.93216C71.7247 3.93216 72.8614 2.24124 72.3697 0.511742C72.1744-0.126442 69.0777-13.2627 68.586-16.0176C68.2408-18.2739 68.1431-22.6572 68.1431-24.4287C68.1431-25.5063 68.5303-26.2388 69.0743-26.9258C71.6758-30.1235 74.8316-33.7642 75.2256-34.4023C76.0172-35.5391 75.7208-36.8814 74.7828-37.8682C73.8345-38.9629 72.1016-38.9595 71.209-38.0635L67.4673-34.0776C65.8526-32.3584 64.482-31.5283 62.3199-31.5283C60.1578-31.5283 58.7872-32.3584 57.169-34.0776L53.4307-38.0635C52.5835-38.9595 50.8472-38.9629 49.857-37.8682C48.919-36.8814 48.6226-35.5391 49.4141-34.4023C49.8081-33.7642 53.0513-30.1235 55.6109-26.9258C56.1094-26.2388 56.542-25.5063 56.542-24.4287C56.542-22.6572 56.4444-18.2739 56.0992-16.0176C55.6075-13.2627 52.5074-0.126442 52.312 0.511742C51.8203 2.24124 52.9571 3.93216 54.7945 3.93216Z"/>
  </g>
 </g>
</svg>
