<?xml version="1.0" encoding="UTF-8"?>
<!--Generator: Apple Native CoreSVG 232.5-->
<!DOCTYPE svg
PUBLIC "-//W3C//DTD SVG 1.1//EN"
       "http://www.w3.org/Graphics/SVG/1.1/DTD/svg11.dtd">
<svg version="1.1" xmlns="http://www.w3.org/2000/svg" xmlns:xlink="http://www.w3.org/1999/xlink" width="3300" height="2200">
 <!--glyph: "uni1001B7.medium", point size: 100.0, font version: "19.0d7e1", template writer version: "128"-->
 <style>.monochrome-0 {-sfsymbols-motion-group:1}
.monochrome-1 {-sfsymbols-motion-group:0}

.multicolor-0:tintColor {-sfsymbols-motion-group:1}
.multicolor-1:tintColor {-sfsymbols-clear-behind:true;-sfsymbols-motion-group:0}

.hierarchical-0:secondary {-sfsymbols-motion-group:1}
.hierarchical-1:primary {-sfsymbols-clear-behind:true;-sfsymbols-motion-group:0}

.SFSymbolsPreviewWireframe {fill:none;opacity:1.0;stroke:black;stroke-width:0.5}
</style>
 <g id="Notes">
  <rect height="2200" id="artboard" style="fill:white;opacity:1" width="3300" x="0" y="0"/>
  <line style="fill:none;stroke:black;opacity:1;stroke-width:0.5;" x1="263" x2="3036" y1="292" y2="292"/>
  <text style="stroke:none;fill:black;font-family:sans-serif;font-size:13;font-weight:bold;" transform="matrix(1 0 0 1 263 322)">Weight/Scale Variations</text>
  <text style="stroke:none;fill:black;font-family:sans-serif;font-size:13;text-anchor:middle;" transform="matrix(1 0 0 1 559.711 322)">Ultralight</text>
  <text style="stroke:none;fill:black;font-family:sans-serif;font-size:13;text-anchor:middle;" transform="matrix(1 0 0 1 856.422 322)">Thin</text>
  <text style="stroke:none;fill:black;font-family:sans-serif;font-size:13;text-anchor:middle;" transform="matrix(1 0 0 1 1153.13 322)">Light</text>
  <text style="stroke:none;fill:black;font-family:sans-serif;font-size:13;text-anchor:middle;" transform="matrix(1 0 0 1 1449.84 322)">Regular</text>
  <text style="stroke:none;fill:black;font-family:sans-serif;font-size:13;text-anchor:middle;" transform="matrix(1 0 0 1 1746.56 322)">Medium</text>
  <text style="stroke:none;fill:black;font-family:sans-serif;font-size:13;text-anchor:middle;" transform="matrix(1 0 0 1 2043.27 322)">Semibold</text>
  <text style="stroke:none;fill:black;font-family:sans-serif;font-size:13;text-anchor:middle;" transform="matrix(1 0 0 1 2339.98 322)">Bold</text>
  <text style="stroke:none;fill:black;font-family:sans-serif;font-size:13;text-anchor:middle;" transform="matrix(1 0 0 1 2636.69 322)">Heavy</text>
  <text style="stroke:none;fill:black;font-family:sans-serif;font-size:13;text-anchor:middle;" transform="matrix(1 0 0 1 2933.4 322)">Black</text>
  <line style="fill:none;stroke:black;opacity:1;stroke-width:0.5;" x1="263" x2="3036" y1="1903" y2="1903"/>
  <g transform="matrix(0.2 0 0 0.2 263 1933)">
   <path d="m46.2402 4.15039c21.5332 0 39.4531-17.8711 39.4531-39.4043s-17.9688-39.4043-39.502-39.4043c-21.4844 0-39.3555 17.8711-39.3555 39.4043s17.9199 39.4043 39.4043 39.4043Zm0-7.42188c-17.7246 0-31.8848-14.209-31.8848-31.9824s14.1113-31.9824 31.8359-31.9824c17.7734 0 32.0312 14.209 32.0312 31.9824s-14.209 31.9824-31.9824 31.9824Zm-17.9688-31.9824c0 2.14844 1.51367 3.61328 3.75977 3.61328h10.498v10.5957c0 2.19727 1.46484 3.71094 3.61328 3.71094 2.24609 0 3.71094-1.51367 3.71094-3.71094v-10.5957h10.5957c2.19727 0 3.71094-1.46484 3.71094-3.61328 0-2.19727-1.51367-3.71094-3.71094-3.71094h-10.5957v-10.5469c0-2.24609-1.46484-3.75977-3.71094-3.75977-2.14844 0-3.61328 1.51367-3.61328 3.75977v10.5469h-10.498c-2.24609 0-3.75977 1.51367-3.75977 3.71094Z"/>
  </g>
  <g transform="matrix(0.2 0 0 0.2 281.506 1933)">
   <path d="m58.5449 14.5508c27.2461 0 49.8047-22.6074 49.8047-49.8047 0-27.2461-22.6074-49.8047-49.8535-49.8047-27.1973 0-49.7559 22.5586-49.7559 49.8047 0 27.1973 22.6074 49.8047 49.8047 49.8047Zm0-8.30078c-23.0469 0-41.4551-18.457-41.4551-41.5039s18.3594-41.5039 41.4062-41.5039 41.5527 18.457 41.5527 41.5039-18.457 41.5039-41.5039 41.5039Zm-22.6562-41.5039c0 2.39258 1.66016 4.00391 4.15039 4.00391h14.3555v14.4043c0 2.44141 1.66016 4.15039 4.05273 4.15039 2.44141 0 4.15039-1.66016 4.15039-4.15039v-14.4043h14.4043c2.44141 0 4.15039-1.61133 4.15039-4.00391 0-2.44141-1.70898-4.15039-4.15039-4.15039h-14.4043v-14.3555c0-2.49023-1.70898-4.19922-4.15039-4.19922-2.39258 0-4.05273 1.70898-4.05273 4.19922v14.3555h-14.3555c-2.49023 0-4.15039 1.70898-4.15039 4.15039Z"/>
  </g>
  <g transform="matrix(0.2 0 0 0.2 304.924 1933)">
   <path d="m74.8535 28.3203c34.8145 0 63.623-28.8086 63.623-63.5742 0-34.8145-28.8574-63.623-63.6719-63.623-34.7656 0-63.5254 28.8086-63.5254 63.623 0 34.7656 28.8086 63.5742 63.5742 63.5742Zm0-9.08203c-30.1758 0-54.4434-24.3164-54.4434-54.4922 0-30.2246 24.2188-54.4922 54.3945-54.4922 30.2246 0 54.541 24.2676 54.541 54.4922 0 30.1758-24.2676 54.4922-54.4922 54.4922Zm-28.8574-54.4922c0 2.58789 1.85547 4.39453 4.58984 4.39453h19.7266v19.7754c0 2.68555 1.85547 4.58984 4.44336 4.58984 2.68555 0 4.54102-1.85547 4.54102-4.58984v-19.7754h19.7754c2.68555 0 4.58984-1.80664 4.58984-4.39453 0-2.73438-1.85547-4.58984-4.58984-4.58984h-19.7754v-19.7266c0-2.73438-1.85547-4.63867-4.54102-4.63867-2.58789 0-4.44336 1.9043-4.44336 4.63867v19.7266h-19.7266c-2.73438 0-4.58984 1.85547-4.58984 4.58984Z"/>
  </g>
  <text style="stroke:none;fill:black;font-family:sans-serif;font-size:13;font-weight:bold;" transform="matrix(1 0 0 1 263 1953)">Design Variations</text>
  <text style="stroke:none;fill:black;font-family:sans-serif;font-size:13;" transform="matrix(1 0 0 1 263 1971)">Symbols are supported in up to nine weights and three scales.</text>
  <text style="stroke:none;fill:black;font-family:sans-serif;font-size:13;" transform="matrix(1 0 0 1 263 1989)">For optimal layout with text and other symbols, vertically align</text>
  <text style="stroke:none;fill:black;font-family:sans-serif;font-size:13;" transform="matrix(1 0 0 1 263 2007)">symbols with the adjacent text.</text>
  <line style="fill:none;stroke:#00AEEF;stroke-width:0.5;opacity:1.0;" x1="776" x2="776" y1="1919" y2="1933"/>
  <g transform="matrix(0.2 0 0 0.2 776 1933)">
   <path d="m16.5527 0.78125c2.58789 0 3.85742-0.976562 4.78516-3.71094l6.29883-17.2363h28.8086l6.29883 17.2363c0.927734 2.73438 2.19727 3.71094 4.73633 3.71094 2.58789 0 4.24805-1.5625 4.24805-4.00391 0-0.830078-0.146484-1.61133-0.537109-2.63672l-22.9004-60.9863c-1.12305-2.97852-3.125-4.49219-6.25-4.49219-3.02734 0-5.07812 1.46484-6.15234 4.44336l-22.9004 61.084c-0.390625 1.02539-0.537109 1.80664-0.537109 2.63672 0 2.44141 1.5625 3.95508 4.10156 3.95508Zm13.4766-28.3691 11.8652-32.8613h0.244141l11.8652 32.8613Z"/>
  </g>
  <line style="fill:none;stroke:#00AEEF;stroke-width:0.5;opacity:1.0;" x1="792.836" x2="792.836" y1="1919" y2="1933"/>
  <text style="stroke:none;fill:black;font-family:sans-serif;font-size:13;font-weight:bold;" transform="matrix(1 0 0 1 776 1953)">Margins</text>
  <text style="stroke:none;fill:black;font-family:sans-serif;font-size:13;" transform="matrix(1 0 0 1 776 1971)">Leading and trailing margins on the left and right side of each symbol</text>
  <text style="stroke:none;fill:black;font-family:sans-serif;font-size:13;" transform="matrix(1 0 0 1 776 1989)">can be adjusted by modifying the x-location of the margin guidelines.</text>
  <text style="stroke:none;fill:black;font-family:sans-serif;font-size:13;" transform="matrix(1 0 0 1 776 2007)">Modifications are automatically applied proportionally to all</text>
  <text style="stroke:none;fill:black;font-family:sans-serif;font-size:13;" transform="matrix(1 0 0 1 776 2025)">scales and weights.</text>
  <g transform="matrix(0.2 0 0 0.2 1289 1933)">
   <path d="m14.209 9.32617 8.49609 8.54492c4.29688 4.3457 9.22852 4.05273 13.8672-1.07422l53.4668-58.9355-4.83398-4.88281-53.0762 58.3984c-1.75781 2.00195-3.41797 2.49023-5.76172 0.146484l-5.85938-5.81055c-2.34375-2.29492-1.80664-4.00391 0.195312-5.81055l57.373-54.0039-4.88281-4.83398-57.959 54.4434c-4.93164 4.58984-5.32227 9.47266-1.02539 13.8184Zm32.0801-90.9668c-2.09961 2.05078-2.24609 4.93164-1.07422 6.88477 1.17188 1.80664 3.4668 2.97852 6.68945 2.14844 7.32422-1.70898 14.9414-2.00195 22.0703 2.68555l-2.92969 7.27539c-1.70898 4.15039-0.830078 7.08008 1.85547 9.81445l11.4746 11.5723c2.44141 2.44141 4.49219 2.53906 7.32422 2.05078l5.32227-0.976562 3.32031 3.36914-0.195312 2.7832c-0.195312 2.49023 0.439453 4.39453 2.88086 6.78711l3.80859 3.71094c2.39258 2.39258 5.46875 2.53906 7.8125 0.195312l14.5508-14.5996c2.34375-2.34375 2.24609-5.32227-0.146484-7.71484l-3.85742-3.80859c-2.39258-2.39258-4.24805-3.17383-6.64062-2.97852l-2.88086 0.244141-3.22266-3.17383 1.2207-5.61523c0.634766-2.83203-0.146484-5.0293-3.07617-7.95898l-10.9863-10.9375c-16.6992-16.6016-38.8672-16.2109-53.3203-1.75781Zm7.4707 1.85547c12.1582-8.88672 28.6133-7.37305 39.7461 3.75977l12.1582 12.0605c1.17188 1.17188 1.36719 2.09961 1.02539 3.80859l-1.61133 7.42188 7.51953 7.42188 4.93164-0.292969c1.26953-0.0488281 1.66016 0.0488281 2.63672 1.02539l2.88086 2.88086-12.207 12.207-2.88086-2.88086c-0.976562-0.976562-1.12305-1.36719-1.07422-2.68555l0.341797-4.88281-7.4707-7.42188-7.61719 1.26953c-1.61133 0.341797-2.34375 0.195312-3.56445-0.976562l-10.0098-10.0098c-1.26953-1.17188-1.41602-2.00195-0.634766-3.85742l4.39453-10.4492c-7.8125-7.27539-17.9688-10.4004-28.125-7.42188-0.78125 0.195312-1.07422-0.439453-0.439453-0.976562Z"/>
  </g>
  <text style="stroke:none;fill:black;font-family:sans-serif;font-size:13;font-weight:bold;" transform="matrix(1 0 0 1 1289 1953)">Exporting</text>
  <text style="stroke:none;fill:black;font-family:sans-serif;font-size:13;" transform="matrix(1 0 0 1 1289 1971)">Symbols should be outlined when exporting to ensure the</text>
  <text style="stroke:none;fill:black;font-family:sans-serif;font-size:13;" transform="matrix(1 0 0 1 1289 1989)">design is preserved when submitting to Xcode.</text>
  <text id="template-version" style="stroke:none;fill:black;font-family:sans-serif;font-size:13;text-anchor:end;" transform="matrix(1 0 0 1 3036 1933)">Template v.5.0</text>
  <text style="stroke:none;fill:black;font-family:sans-serif;font-size:13;text-anchor:end;" transform="matrix(1 0 0 1 3036 1951)">Requires Xcode 15 or greater</text>
  <text id="descriptive-name" style="stroke:none;fill:black;font-family:sans-serif;font-size:13;text-anchor:end;" transform="matrix(1 0 0 1 3036 1969)">Generated from sun.haze</text>
  <text style="stroke:none;fill:black;font-family:sans-serif;font-size:13;text-anchor:end;" transform="matrix(1 0 0 1 3036 1987)">Typeset at 100.0 points</text>
  <text style="stroke:none;fill:black;font-family:sans-serif;font-size:13;" transform="matrix(1 0 0 1 263 726)">Small</text>
  <text style="stroke:none;fill:black;font-family:sans-serif;font-size:13;" transform="matrix(1 0 0 1 263 1156)">Medium</text>
  <text style="stroke:none;fill:black;font-family:sans-serif;font-size:13;" transform="matrix(1 0 0 1 263 1586)">Large</text>
 </g>
 <g id="Guides">
  <g id="H-reference" style="fill:#27AAE1;stroke:none;" transform="matrix(1 0 0 1 339 696)">
   <path d="M0.993654 0L3.63775 0L29.3281-67.1323L30.0303-67.1323L30.0303-70.459L28.1226-70.459ZM11.6885-24.4799L46.9815-24.4799L46.2315-26.7285L12.4385-26.7285ZM55.1196 0L57.7637 0L30.6382-70.459L29.4326-70.459L29.4326-67.1323Z"/>
  </g>
  <line id="Baseline-S" style="fill:none;stroke:#27AAE1;opacity:1;stroke-width:0.5;" x1="263" x2="3036" y1="696" y2="696"/>
  <line id="Capline-S" style="fill:none;stroke:#27AAE1;opacity:1;stroke-width:0.5;" x1="263" x2="3036" y1="625.541" y2="625.541"/>
  <g id="H-reference" style="fill:#27AAE1;stroke:none;" transform="matrix(1 0 0 1 339 1126)">
   <path d="M0.993654 0L3.63775 0L29.3281-67.1323L30.0303-67.1323L30.0303-70.459L28.1226-70.459ZM11.6885-24.4799L46.9815-24.4799L46.2315-26.7285L12.4385-26.7285ZM55.1196 0L57.7637 0L30.6382-70.459L29.4326-70.459L29.4326-67.1323Z"/>
  </g>
  <line id="Baseline-M" style="fill:none;stroke:#27AAE1;opacity:1;stroke-width:0.5;" x1="263" x2="3036" y1="1126" y2="1126"/>
  <line id="Capline-M" style="fill:none;stroke:#27AAE1;opacity:1;stroke-width:0.5;" x1="263" x2="3036" y1="1055.54" y2="1055.54"/>
  <g id="H-reference" style="fill:#27AAE1;stroke:none;" transform="matrix(1 0 0 1 339 1556)">
   <path d="M0.993654 0L3.63775 0L29.3281-67.1323L30.0303-67.1323L30.0303-70.459L28.1226-70.459ZM11.6885-24.4799L46.9815-24.4799L46.2315-26.7285L12.4385-26.7285ZM55.1196 0L57.7637 0L30.6382-70.459L29.4326-70.459L29.4326-67.1323Z"/>
  </g>
  <line id="Baseline-L" style="fill:none;stroke:#27AAE1;opacity:1;stroke-width:0.5;" x1="263" x2="3036" y1="1556" y2="1556"/>
  <line id="Capline-L" style="fill:none;stroke:#27AAE1;opacity:1;stroke-width:0.5;" x1="263" x2="3036" y1="1485.54" y2="1485.54"/>
  <line id="left-margin-Ultralight-S" style="fill:none;stroke:#00AEEF;stroke-width:0.5;opacity:1.0;" x1="505.805" x2="505.805" y1="600.785" y2="720.121"/>
  <line id="right-margin-Ultralight-S" style="fill:none;stroke:#00AEEF;stroke-width:0.5;opacity:1.0;" x1="613.617" x2="613.617" y1="600.785" y2="720.121"/>
  <line id="left-margin-Regular-S" style="fill:none;stroke:#00AEEF;stroke-width:0.5;opacity:1.0;" x1="1395.94" x2="1395.94" y1="600.785" y2="720.121"/>
  <line id="right-margin-Regular-S" style="fill:none;stroke:#00AEEF;stroke-width:0.5;opacity:1.0;" x1="1503.75" x2="1503.75" y1="600.785" y2="720.121"/>
  <line id="left-margin-Black-S" style="fill:none;stroke:#00AEEF;stroke-width:0.5;opacity:1.0;" x1="2879.49" x2="2879.49" y1="600.785" y2="720.121"/>
  <line id="right-margin-Black-S" style="fill:none;stroke:#00AEEF;stroke-width:0.5;opacity:1.0;" x1="2987.31" x2="2987.31" y1="600.785" y2="720.121"/>
 </g>
 <g id="Symbols">
  <g id="Black-S" transform="matrix(1 0 0 1 2879.49 696)">
   <path class="monochrome-0 multicolor-0:tintColor hierarchical-0:secondary SFSymbolsPreviewWireframe" d="M36.377-26.416L51.416-26.416C46.4844-27.5391 42.8223-32.0312 42.8223-37.4512C42.8223-43.6523 47.8027-48.6328 53.9062-48.6328C60.0098-48.6328 64.9902-43.6523 64.9902-37.4512C64.9902-32.0312 61.3281-27.5391 56.3965-26.416L71.4355-26.416C73.9258-29.6387 75-33.3984 75-37.4512C75-49.1699 65.5762-58.6426 53.9062-58.6426C42.2363-58.6426 32.8125-49.2188 32.8125-37.4512C32.8125-33.3984 33.9355-29.6387 36.377-26.416ZM14.6484-34.5215L20.8984-34.4727C23.584-34.4727 25.7812-36.6699 25.7812-39.3066C25.7812-41.9434 23.584-44.0918 20.8984-44.0918L14.6484-44.0918C12.0117-44.0918 9.76562-41.9434 9.76562-39.3066C9.76562-36.6699 12.0605-34.5215 14.6484-34.5215ZM34.0332-57.2266C35.8887-59.082 35.8398-62.207 33.9844-64.0625L29.541-68.457C27.6367-70.3613 24.5605-70.4102 22.7051-68.5547C20.8496-66.6992 20.8496-63.5742 22.7539-61.6699L27.1973-57.3242C29.0527-55.4688 32.1777-55.3711 34.0332-57.2266ZM53.9062-65.4785C56.543-65.4785 58.6914-67.7246 58.6914-70.3613L58.6914-76.6113C58.6914-79.2969 56.543-81.4941 53.9062-81.4941C51.2695-81.4941 49.1211-79.2969 49.1211-76.6113L49.1211-70.3613C49.1211-67.7246 51.2695-65.4785 53.9062-65.4785ZM73.7793-57.2266C75.6348-55.3711 78.7598-55.4688 80.6152-57.3242L85.0586-61.6699C86.9629-63.5742 86.9629-66.6992 85.1074-68.5547C83.252-70.4102 80.1758-70.3613 78.2715-68.457L73.8281-64.0625C71.9727-62.207 71.9238-59.082 73.7793-57.2266ZM86.9141-34.5215L93.1641-34.4727C95.8496-34.4727 98.0469-36.6699 98.0469-39.3066C98.0469-41.9434 95.8496-44.0918 93.1641-44.0918L86.9141-44.0918C84.2773-44.0918 82.0312-41.9434 82.0312-39.3066C82.0312-36.6699 84.3262-34.5215 86.9141-34.5215Z"/>
   <path class="monochrome-1 multicolor-1:tintColor hierarchical-1:primary SFSymbolsPreviewWireframe" d="M19.1406-19.9707L94.4336-19.9707C96.4844-19.9707 98.0469-21.3867 98.0469-23.291C98.0469-25.1953 96.4844-26.6113 94.4336-26.6113L19.1406-26.6113C17.0898-26.6113 15.5273-25.1953 15.5273-23.291C15.5273-21.3867 17.0898-19.9707 19.1406-19.9707ZM13.3789-5.27344L88.6719-5.27344C90.7227-5.27344 92.2852-6.68945 92.2852-8.59375C92.2852-10.498 90.7227-11.9141 88.6719-11.9141L13.3789-11.9141C11.3281-11.9141 9.76562-10.498 9.76562-8.59375C9.76562-6.68945 11.3281-5.27344 13.3789-5.27344ZM19.1406 9.42383L94.4336 9.42383C96.4844 9.42383 98.0469 8.00781 98.0469 6.10352C98.0469 4.19922 96.4844 2.7832 94.4336 2.7832L19.1406 2.7832C17.0898 2.7832 15.5273 4.19922 15.5273 6.10352C15.5273 8.00781 17.0898 9.42383 19.1406 9.42383Z"/>
  </g>
  <g id="Regular-S" transform="matrix(1 0 0 1 1395.94 696)">
   <path class="monochrome-0 multicolor-0:tintColor hierarchical-0:secondary SFSymbolsPreviewWireframe" d="M37.4512-24.0234L48.9746-24.0234C43.6523-25.9766 39.7949-31.2012 39.7949-37.207C39.7949-44.9219 46.1914-51.3184 53.9062-51.3184C61.6211-51.3184 68.0176-44.9219 68.0176-37.207C68.0176-31.2012 64.1602-25.9766 58.8379-24.0234L70.3613-24.0234C73.3398-27.6367 75.0488-32.2266 75.0488-37.207C75.0488-48.7793 65.4297-58.3984 53.9062-58.3984C42.3828-58.3984 32.7637-48.7793 32.7637-37.207C32.7637-32.2266 34.4727-27.6367 37.4512-24.0234ZM13.7207-34.6191L22.0703-34.6191C24.3164-34.6191 26.0742-36.1816 26.0254-38.1836C25.9766-40.1367 24.3164-41.748 22.0703-41.748L13.7207-41.748C11.4258-41.748 9.76562-40.1367 9.76562-38.1836C9.76562-36.1816 11.4258-34.6191 13.7207-34.6191ZM34.1797-56.9336C35.5469-58.3008 35.5469-60.6445 33.8867-62.2559L27.9785-68.1641C26.3672-69.8242 24.1211-69.7266 22.7051-68.4082C21.2891-67.041 21.2891-64.7461 22.9492-63.0859L28.8574-57.1777C30.4688-55.5664 32.8125-55.5176 34.1797-56.9336ZM53.9062-65.0879C55.8594-65.1367 57.4707-66.748 57.4707-69.043L57.4707-77.3926C57.4707-79.6875 55.8594-81.3477 53.9062-81.3477C51.9531-81.3477 50.3418-79.6875 50.3418-77.3926L50.3418-69.043C50.3418-66.748 51.9531-65.0391 53.9062-65.0879ZM73.6328-56.9336C75.0488-55.5664 77.3438-55.5664 78.9551-57.1777L84.8633-63.0859C86.5234-64.7461 86.4746-66.9922 85.1074-68.4082C83.7402-69.7754 81.4453-69.8242 79.834-68.1641L73.9258-62.2559C72.2656-60.6445 72.2168-58.252 73.6328-56.9336ZM85.7422-34.6191L94.0918-34.6191C96.3867-34.6191 98.0469-36.1816 98.0469-38.1836C98.0469-40.1367 96.3867-41.748 94.0918-41.748L85.7422-41.748C83.4961-41.748 81.7383-40.1367 81.7871-38.1836C81.8359-36.1816 83.4961-34.6191 85.7422-34.6191Z"/>
   <path class="monochrome-1 multicolor-1:tintColor hierarchical-1:primary SFSymbolsPreviewWireframe" d="M18.2129-19.9219L95.3613-19.9219C96.875-19.9219 98.0469-21.0938 98.0469-22.6562C98.0469-24.1699 96.875-25.3906 95.3613-25.3906L18.2129-25.3906C16.6992-25.3906 15.5273-24.1699 15.5273-22.6562C15.5273-21.0938 16.6992-19.9219 18.2129-19.9219ZM12.4512-5.22461L89.5996-5.22461C91.1133-5.22461 92.2852-6.39648 92.2852-7.95898C92.2852-9.47266 91.1133-10.6934 89.5996-10.6934L12.4512-10.6934C10.9375-10.6934 9.76562-9.47266 9.76562-7.95898C9.76562-6.39648 10.9375-5.22461 12.4512-5.22461ZM18.2129 9.47266L95.3613 9.47266C96.875 9.47266 98.0469 8.30078 98.0469 6.73828C98.0469 5.22461 96.875 4.00391 95.3613 4.00391L18.2129 4.00391C16.6992 4.00391 15.5273 5.22461 15.5273 6.73828C15.5273 8.30078 16.6992 9.47266 18.2129 9.47266Z"/>
  </g>
  <g id="Ultralight-S" transform="matrix(1 0 0 1 505.805 696)">
   <path class="monochrome-0 multicolor-0:tintColor hierarchical-0:secondary SFSymbolsPreviewWireframe" d="M40.4028-22.3887L43.8433-22.3887C39.2476-25.5679 36.2075-30.8833 36.2075-36.8892C36.2075-46.6474 44.148-54.5879 53.9062-54.5879C63.6645-54.5879 71.605-46.6474 71.605-36.8892C71.605-30.8833 68.5649-25.5679 63.9692-22.3887L67.4097-22.3887C71.2964-26.002 73.7319-31.1367 73.7319-36.8892C73.7319-47.8257 64.8394-56.7183 53.9062-56.7183C42.9731-56.7183 34.0806-47.8257 34.0806-36.8892C34.0806-31.1367 36.5161-26.002 40.4028-22.3887ZM10.8145-36.7988L24.9765-36.7988C25.5879-36.7988 26.0288-37.2715 26.0254-37.8657C26.022-38.3657 25.5879-38.9326 24.9765-38.9326L10.8145-38.9326C10.2451-38.9326 9.76562-38.4111 9.76562-37.8657C9.76562-37.3169 10.2451-36.7988 10.8145-36.7988ZM34.1797-56.6157C34.5933-56.9839 34.5933-57.7383 34.2046-58.0782L24.1641-68.1187C23.7334-68.5527 23.0313-68.4551 22.7051-68.0903C22.2427-67.6768 22.1973-67.062 22.6768-66.6279L32.7173-56.5874C33.0571-56.2021 33.7661-56.1987 34.1797-56.6157ZM53.9062-64.77C54.4517-64.7734 54.9732-65.2495 54.9732-65.7735L54.9732-79.9809C54.9732-80.5503 54.4517-81.0298 53.9062-81.0298C53.3608-81.0298 52.8393-80.5503 52.8393-79.9809L52.8393-65.7735C52.8393-65.2495 53.3608-64.7666 53.9062-64.77ZM73.6328-56.6157C74.0498-56.2021 74.7554-56.2021 75.0952-56.5874L85.1357-66.6279C85.6152-67.062 85.5664-67.6733 85.1074-68.0903C84.7392-68.4585 84.0791-68.5527 83.6484-68.1187L73.6079-58.0782C73.2192-57.7383 73.2158-56.9805 73.6328-56.6157ZM82.836-36.7988L96.998-36.7988C97.6128-36.7988 98.0469-37.2715 98.0469-37.8657C98.0469-38.3657 97.6128-38.9326 96.998-38.9326L82.836-38.9326C82.27-38.9326 81.7837-38.4111 81.7871-37.8657C81.7905-37.3169 82.27-36.7988 82.836-36.7988Z"/>
   <path class="monochrome-1 multicolor-1:tintColor hierarchical-1:primary SFSymbolsPreviewWireframe" d="M16.669-21.3296L96.9053-21.3296C97.5107-21.3296 98.0469-21.7295 98.0469-22.3384C98.0469-22.8984 97.5107-23.3472 96.9053-23.3472L16.669-23.3472C16.0635-23.3472 15.5273-22.8984 15.5273-22.3384C15.5273-21.7295 16.0635-21.3296 16.669-21.3296ZM10.9072-6.63231L91.1435-6.63231C91.749-6.63231 92.2852-7.03222 92.2852-7.64112C92.2852-8.20118 91.749-8.64992 91.1435-8.64992L10.9072-8.64992C10.3018-8.64992 9.76562-8.20118 9.76562-7.64112C9.76562-7.03222 10.3018-6.63231 10.9072-6.63231ZM16.669 8.06495L96.9053 8.06495C97.5107 8.06495 98.0469 7.66504 98.0469 7.05615C98.0469 6.49608 97.5107 6.04735 96.9053 6.04735L16.669 6.04735C16.0635 6.04735 15.5273 6.49608 15.5273 7.05615C15.5273 7.66504 16.0635 8.06495 16.669 8.06495Z"/>
  </g>
 </g>
</svg>
