<?xml version="1.0" encoding="UTF-8"?>
<!--Generator: Apple Native CoreSVG 232.5-->
<!DOCTYPE svg
PUBLIC "-//W3C//DTD SVG 1.1//EN"
       "http://www.w3.org/Graphics/SVG/1.1/DTD/svg11.dtd">
<svg version="1.1" xmlns="http://www.w3.org/2000/svg" xmlns:xlink="http://www.w3.org/1999/xlink" width="3300" height="2200">
 <!--glyph: "uni100ED0.medium", point size: 100.0, font version: "19.0d7e1", template writer version: "128"-->
 <style>.monochrome-0 {-sfsymbols-motion-group:1}
.monochrome-1 {-sfsymbols-motion-group:0}

.multicolor-0:tintColor {-sfsymbols-motion-group:1}
.multicolor-1:tintColor {-sfsymbols-motion-group:0}

.hierarchical-0:secondary {-sfsymbols-motion-group:1}
.hierarchical-1:primary {-sfsymbols-motion-group:0}

.SFSymbolsPreviewWireframe {fill:none;opacity:1.0;stroke:black;stroke-width:0.5}
</style>
 <g id="Notes">
  <rect height="2200" id="artboard" style="fill:white;opacity:1" width="3300" x="0" y="0"/>
  <line style="fill:none;stroke:black;opacity:1;stroke-width:0.5;" x1="263" x2="3036" y1="292" y2="292"/>
  <text style="stroke:none;fill:black;font-family:sans-serif;font-size:13;font-weight:bold;" transform="matrix(1 0 0 1 263 322)">Weight/Scale Variations</text>
  <text style="stroke:none;fill:black;font-family:sans-serif;font-size:13;text-anchor:middle;" transform="matrix(1 0 0 1 559.711 322)">Ultralight</text>
  <text style="stroke:none;fill:black;font-family:sans-serif;font-size:13;text-anchor:middle;" transform="matrix(1 0 0 1 856.422 322)">Thin</text>
  <text style="stroke:none;fill:black;font-family:sans-serif;font-size:13;text-anchor:middle;" transform="matrix(1 0 0 1 1153.13 322)">Light</text>
  <text style="stroke:none;fill:black;font-family:sans-serif;font-size:13;text-anchor:middle;" transform="matrix(1 0 0 1 1449.84 322)">Regular</text>
  <text style="stroke:none;fill:black;font-family:sans-serif;font-size:13;text-anchor:middle;" transform="matrix(1 0 0 1 1746.56 322)">Medium</text>
  <text style="stroke:none;fill:black;font-family:sans-serif;font-size:13;text-anchor:middle;" transform="matrix(1 0 0 1 2043.27 322)">Semibold</text>
  <text style="stroke:none;fill:black;font-family:sans-serif;font-size:13;text-anchor:middle;" transform="matrix(1 0 0 1 2339.98 322)">Bold</text>
  <text style="stroke:none;fill:black;font-family:sans-serif;font-size:13;text-anchor:middle;" transform="matrix(1 0 0 1 2636.69 322)">Heavy</text>
  <text style="stroke:none;fill:black;font-family:sans-serif;font-size:13;text-anchor:middle;" transform="matrix(1 0 0 1 2933.4 322)">Black</text>
  <line style="fill:none;stroke:black;opacity:1;stroke-width:0.5;" x1="263" x2="3036" y1="1903" y2="1903"/>
  <g transform="matrix(0.2 0 0 0.2 263 1933)">
   <path d="m46.2402 4.15039c21.5332 0 39.4531-17.8711 39.4531-39.4043s-17.9688-39.4043-39.502-39.4043c-21.4844 0-39.3555 17.8711-39.3555 39.4043s17.9199 39.4043 39.4043 39.4043Zm0-7.42188c-17.7246 0-31.8848-14.209-31.8848-31.9824s14.1113-31.9824 31.8359-31.9824c17.7734 0 32.0312 14.209 32.0312 31.9824s-14.209 31.9824-31.9824 31.9824Zm-17.9688-31.9824c0 2.14844 1.51367 3.61328 3.75977 3.61328h10.498v10.5957c0 2.19727 1.46484 3.71094 3.61328 3.71094 2.24609 0 3.71094-1.51367 3.71094-3.71094v-10.5957h10.5957c2.19727 0 3.71094-1.46484 3.71094-3.61328 0-2.19727-1.51367-3.71094-3.71094-3.71094h-10.5957v-10.5469c0-2.24609-1.46484-3.75977-3.71094-3.75977-2.14844 0-3.61328 1.51367-3.61328 3.75977v10.5469h-10.498c-2.24609 0-3.75977 1.51367-3.75977 3.71094Z"/>
  </g>
  <g transform="matrix(0.2 0 0 0.2 281.506 1933)">
   <path d="m58.5449 14.5508c27.2461 0 49.8047-22.6074 49.8047-49.8047 0-27.2461-22.6074-49.8047-49.8535-49.8047-27.1973 0-49.7559 22.5586-49.7559 49.8047 0 27.1973 22.6074 49.8047 49.8047 49.8047Zm0-8.30078c-23.0469 0-41.4551-18.457-41.4551-41.5039s18.3594-41.5039 41.4062-41.5039 41.5527 18.457 41.5527 41.5039-18.457 41.5039-41.5039 41.5039Zm-22.6562-41.5039c0 2.39258 1.66016 4.00391 4.15039 4.00391h14.3555v14.4043c0 2.44141 1.66016 4.15039 4.05273 4.15039 2.44141 0 4.15039-1.66016 4.15039-4.15039v-14.4043h14.4043c2.44141 0 4.15039-1.61133 4.15039-4.00391 0-2.44141-1.70898-4.15039-4.15039-4.15039h-14.4043v-14.3555c0-2.49023-1.70898-4.19922-4.15039-4.19922-2.39258 0-4.05273 1.70898-4.05273 4.19922v14.3555h-14.3555c-2.49023 0-4.15039 1.70898-4.15039 4.15039Z"/>
  </g>
  <g transform="matrix(0.2 0 0 0.2 304.924 1933)">
   <path d="m74.8535 28.3203c34.8145 0 63.623-28.8086 63.623-63.5742 0-34.8145-28.8574-63.623-63.6719-63.623-34.7656 0-63.5254 28.8086-63.5254 63.623 0 34.7656 28.8086 63.5742 63.5742 63.5742Zm0-9.08203c-30.1758 0-54.4434-24.3164-54.4434-54.4922 0-30.2246 24.2188-54.4922 54.3945-54.4922 30.2246 0 54.541 24.2676 54.541 54.4922 0 30.1758-24.2676 54.4922-54.4922 54.4922Zm-28.8574-54.4922c0 2.58789 1.85547 4.39453 4.58984 4.39453h19.7266v19.7754c0 2.68555 1.85547 4.58984 4.44336 4.58984 2.68555 0 4.54102-1.85547 4.54102-4.58984v-19.7754h19.7754c2.68555 0 4.58984-1.80664 4.58984-4.39453 0-2.73438-1.85547-4.58984-4.58984-4.58984h-19.7754v-19.7266c0-2.73438-1.85547-4.63867-4.54102-4.63867-2.58789 0-4.44336 1.9043-4.44336 4.63867v19.7266h-19.7266c-2.73438 0-4.58984 1.85547-4.58984 4.58984Z"/>
  </g>
  <text style="stroke:none;fill:black;font-family:sans-serif;font-size:13;font-weight:bold;" transform="matrix(1 0 0 1 263 1953)">Design Variations</text>
  <text style="stroke:none;fill:black;font-family:sans-serif;font-size:13;" transform="matrix(1 0 0 1 263 1971)">Symbols are supported in up to nine weights and three scales.</text>
  <text style="stroke:none;fill:black;font-family:sans-serif;font-size:13;" transform="matrix(1 0 0 1 263 1989)">For optimal layout with text and other symbols, vertically align</text>
  <text style="stroke:none;fill:black;font-family:sans-serif;font-size:13;" transform="matrix(1 0 0 1 263 2007)">symbols with the adjacent text.</text>
  <line style="fill:none;stroke:#00AEEF;stroke-width:0.5;opacity:1.0;" x1="776" x2="776" y1="1919" y2="1933"/>
  <g transform="matrix(0.2 0 0 0.2 776 1933)">
   <path d="m16.5527 0.78125c2.58789 0 3.85742-0.976562 4.78516-3.71094l6.29883-17.2363h28.8086l6.29883 17.2363c0.927734 2.73438 2.19727 3.71094 4.73633 3.71094 2.58789 0 4.24805-1.5625 4.24805-4.00391 0-0.830078-0.146484-1.61133-0.537109-2.63672l-22.9004-60.9863c-1.12305-2.97852-3.125-4.49219-6.25-4.49219-3.02734 0-5.07812 1.46484-6.15234 4.44336l-22.9004 61.084c-0.390625 1.02539-0.537109 1.80664-0.537109 2.63672 0 2.44141 1.5625 3.95508 4.10156 3.95508Zm13.4766-28.3691 11.8652-32.8613h0.244141l11.8652 32.8613Z"/>
  </g>
  <line style="fill:none;stroke:#00AEEF;stroke-width:0.5;opacity:1.0;" x1="792.836" x2="792.836" y1="1919" y2="1933"/>
  <text style="stroke:none;fill:black;font-family:sans-serif;font-size:13;font-weight:bold;" transform="matrix(1 0 0 1 776 1953)">Margins</text>
  <text style="stroke:none;fill:black;font-family:sans-serif;font-size:13;" transform="matrix(1 0 0 1 776 1971)">Leading and trailing margins on the left and right side of each symbol</text>
  <text style="stroke:none;fill:black;font-family:sans-serif;font-size:13;" transform="matrix(1 0 0 1 776 1989)">can be adjusted by modifying the x-location of the margin guidelines.</text>
  <text style="stroke:none;fill:black;font-family:sans-serif;font-size:13;" transform="matrix(1 0 0 1 776 2007)">Modifications are automatically applied proportionally to all</text>
  <text style="stroke:none;fill:black;font-family:sans-serif;font-size:13;" transform="matrix(1 0 0 1 776 2025)">scales and weights.</text>
  <g transform="matrix(0.2 0 0 0.2 1289 1933)">
   <path d="m14.209 9.32617 8.49609 8.54492c4.29688 4.3457 9.22852 4.05273 13.8672-1.07422l53.4668-58.9355-4.83398-4.88281-53.0762 58.3984c-1.75781 2.00195-3.41797 2.49023-5.76172 0.146484l-5.85938-5.81055c-2.34375-2.29492-1.80664-4.00391 0.195312-5.81055l57.373-54.0039-4.88281-4.83398-57.959 54.4434c-4.93164 4.58984-5.32227 9.47266-1.02539 13.8184Zm32.0801-90.9668c-2.09961 2.05078-2.24609 4.93164-1.07422 6.88477 1.17188 1.80664 3.4668 2.97852 6.68945 2.14844 7.32422-1.70898 14.9414-2.00195 22.0703 2.68555l-2.92969 7.27539c-1.70898 4.15039-0.830078 7.08008 1.85547 9.81445l11.4746 11.5723c2.44141 2.44141 4.49219 2.53906 7.32422 2.05078l5.32227-0.976562 3.32031 3.36914-0.195312 2.7832c-0.195312 2.49023 0.439453 4.39453 2.88086 6.78711l3.80859 3.71094c2.39258 2.39258 5.46875 2.53906 7.8125 0.195312l14.5508-14.5996c2.34375-2.34375 2.24609-5.32227-0.146484-7.71484l-3.85742-3.80859c-2.39258-2.39258-4.24805-3.17383-6.64062-2.97852l-2.88086 0.244141-3.22266-3.17383 1.2207-5.61523c0.634766-2.83203-0.146484-5.0293-3.07617-7.95898l-10.9863-10.9375c-16.6992-16.6016-38.8672-16.2109-53.3203-1.75781Zm7.4707 1.85547c12.1582-8.88672 28.6133-7.37305 39.7461 3.75977l12.1582 12.0605c1.17188 1.17188 1.36719 2.09961 1.02539 3.80859l-1.61133 7.42188 7.51953 7.42188 4.93164-0.292969c1.26953-0.0488281 1.66016 0.0488281 2.63672 1.02539l2.88086 2.88086-12.207 12.207-2.88086-2.88086c-0.976562-0.976562-1.12305-1.36719-1.07422-2.68555l0.341797-4.88281-7.4707-7.42188-7.61719 1.26953c-1.61133 0.341797-2.34375 0.195312-3.56445-0.976562l-10.0098-10.0098c-1.26953-1.17188-1.41602-2.00195-0.634766-3.85742l4.39453-10.4492c-7.8125-7.27539-17.9688-10.4004-28.125-7.42188-0.78125 0.195312-1.07422-0.439453-0.439453-0.976562Z"/>
  </g>
  <text style="stroke:none;fill:black;font-family:sans-serif;font-size:13;font-weight:bold;" transform="matrix(1 0 0 1 1289 1953)">Exporting</text>
  <text style="stroke:none;fill:black;font-family:sans-serif;font-size:13;" transform="matrix(1 0 0 1 1289 1971)">Symbols should be outlined when exporting to ensure the</text>
  <text style="stroke:none;fill:black;font-family:sans-serif;font-size:13;" transform="matrix(1 0 0 1 1289 1989)">design is preserved when submitting to Xcode.</text>
  <text id="template-version" style="stroke:none;fill:black;font-family:sans-serif;font-size:13;text-anchor:end;" transform="matrix(1 0 0 1 3036 1933)">Template v.5.0</text>
  <text style="stroke:none;fill:black;font-family:sans-serif;font-size:13;text-anchor:end;" transform="matrix(1 0 0 1 3036 1951)">Requires Xcode 15 or greater</text>
  <text id="descriptive-name" style="stroke:none;fill:black;font-family:sans-serif;font-size:13;text-anchor:end;" transform="matrix(1 0 0 1 3036 1969)">Generated from takeoutbag.and.cup.and.straw</text>
  <text style="stroke:none;fill:black;font-family:sans-serif;font-size:13;text-anchor:end;" transform="matrix(1 0 0 1 3036 1987)">Typeset at 100.0 points</text>
  <text style="stroke:none;fill:black;font-family:sans-serif;font-size:13;" transform="matrix(1 0 0 1 263 726)">Small</text>
  <text style="stroke:none;fill:black;font-family:sans-serif;font-size:13;" transform="matrix(1 0 0 1 263 1156)">Medium</text>
  <text style="stroke:none;fill:black;font-family:sans-serif;font-size:13;" transform="matrix(1 0 0 1 263 1586)">Large</text>
 </g>
 <g id="Guides">
  <g id="H-reference" style="fill:#27AAE1;stroke:none;" transform="matrix(1 0 0 1 339 696)">
   <path d="M0.993654 0L3.63775 0L29.3281-67.1323L30.0303-67.1323L30.0303-70.459L28.1226-70.459ZM11.6885-24.4799L46.9815-24.4799L46.2315-26.7285L12.4385-26.7285ZM55.1196 0L57.7637 0L30.6382-70.459L29.4326-70.459L29.4326-67.1323Z"/>
  </g>
  <line id="Baseline-S" style="fill:none;stroke:#27AAE1;opacity:1;stroke-width:0.5;" x1="263" x2="3036" y1="696" y2="696"/>
  <line id="Capline-S" style="fill:none;stroke:#27AAE1;opacity:1;stroke-width:0.5;" x1="263" x2="3036" y1="625.541" y2="625.541"/>
  <g id="H-reference" style="fill:#27AAE1;stroke:none;" transform="matrix(1 0 0 1 339 1126)">
   <path d="M0.993654 0L3.63775 0L29.3281-67.1323L30.0303-67.1323L30.0303-70.459L28.1226-70.459ZM11.6885-24.4799L46.9815-24.4799L46.2315-26.7285L12.4385-26.7285ZM55.1196 0L57.7637 0L30.6382-70.459L29.4326-70.459L29.4326-67.1323Z"/>
  </g>
  <line id="Baseline-M" style="fill:none;stroke:#27AAE1;opacity:1;stroke-width:0.5;" x1="263" x2="3036" y1="1126" y2="1126"/>
  <line id="Capline-M" style="fill:none;stroke:#27AAE1;opacity:1;stroke-width:0.5;" x1="263" x2="3036" y1="1055.54" y2="1055.54"/>
  <g id="H-reference" style="fill:#27AAE1;stroke:none;" transform="matrix(1 0 0 1 339 1556)">
   <path d="M0.993654 0L3.63775 0L29.3281-67.1323L30.0303-67.1323L30.0303-70.459L28.1226-70.459ZM11.6885-24.4799L46.9815-24.4799L46.2315-26.7285L12.4385-26.7285ZM55.1196 0L57.7637 0L30.6382-70.459L29.4326-70.459L29.4326-67.1323Z"/>
  </g>
  <line id="Baseline-L" style="fill:none;stroke:#27AAE1;opacity:1;stroke-width:0.5;" x1="263" x2="3036" y1="1556" y2="1556"/>
  <line id="Capline-L" style="fill:none;stroke:#27AAE1;opacity:1;stroke-width:0.5;" x1="263" x2="3036" y1="1485.54" y2="1485.54"/>
  <line id="left-margin-Ultralight-S" style="fill:none;stroke:#00AEEF;stroke-width:0.5;opacity:1.0;" x1="504.792" x2="504.792" y1="600.785" y2="720.121"/>
  <line id="right-margin-Ultralight-S" style="fill:none;stroke:#00AEEF;stroke-width:0.5;opacity:1.0;" x1="614.63" x2="614.63" y1="600.785" y2="720.121"/>
  <line id="left-margin-Regular-S" style="fill:none;stroke:#00AEEF;stroke-width:0.5;opacity:1.0;" x1="1391.2" x2="1391.2" y1="600.785" y2="720.121"/>
  <line id="right-margin-Regular-S" style="fill:none;stroke:#00AEEF;stroke-width:0.5;opacity:1.0;" x1="1508.49" x2="1508.49" y1="600.785" y2="720.121"/>
  <line id="left-margin-Black-S" style="fill:none;stroke:#00AEEF;stroke-width:0.5;opacity:1.0;" x1="2871.71" x2="2871.71" y1="600.785" y2="720.121"/>
  <line id="right-margin-Black-S" style="fill:none;stroke:#00AEEF;stroke-width:0.5;opacity:1.0;" x1="2995.09" x2="2995.09" y1="600.785" y2="720.121"/>
 </g>
 <g id="Symbols">
  <g id="Black-S" transform="matrix(1 0 0 1 2871.71 696)">
   <path class="monochrome-0 multicolor-0:tintColor hierarchical-0:secondary SFSymbolsPreviewWireframe" d="M24.0234 5.76172L62.6465 5.76172C62.3047 4.49219 62.1094 3.125 61.9629 1.66016L61.1816-6.44531L26.2695-6.44531C23.4375-6.44531 21.9727-7.91016 21.9727-10.7422L21.9727-49.0723C21.9727-49.707 22.0703-49.9512 22.4609-50.4883L29.5898-60.0098C30.6641-61.4746 30.8105-62.3047 30.8105-64.209L30.8105-68.2129C30.8105-70.752 32.1777-72.1191 34.7168-72.1191L59.2285-72.1191C61.7676-72.1191 63.1348-70.752 63.1348-68.2129L63.1348-64.209C63.1348-62.3047 63.2812-61.4746 64.3555-60.0098L69.1406-53.6133C70.4102-53.9551 71.7773-54.1016 73.2422-54.1016L83.4473-54.1016C83.2031-54.7852 82.8613-55.3711 82.4219-55.957L74.2188-66.8457L74.2188-70.2637C74.2188-78.5156 69.5312-83.2031 61.2793-83.2031L32.666-83.2031C24.4141-83.2031 19.7266-78.5156 19.7266-70.2637L19.7266-66.8457L11.5234-55.957C10.2051-54.1992 9.76562-52.3438 9.76562-48.5352L9.76562-8.49609C9.76562 0.585938 14.9414 5.76172 24.0234 5.76172ZM37.8906-61.6699L56.25-61.6699C57.959-61.6699 59.3262-63.0859 59.3262-64.7949C59.3262-66.5039 57.9102-67.9199 56.25-67.9199L37.8906-67.9199C36.2305-67.9199 34.8145-66.5039 34.8145-64.7949C34.8145-63.0859 36.1816-61.6699 37.8906-61.6699Z"/>
   <path class="monochrome-1 multicolor-1:tintColor hierarchical-1:primary SFSymbolsPreviewWireframe" d="M81.4453 12.8906L97.6562 12.8906C105.225 12.8906 109.082 9.13086 109.863 0.976562L113.574-37.5977C114.111-43.1152 111.035-46.7773 105.859-46.7773L73.2422-46.7773C68.0664-46.7773 64.9902-43.1152 65.5273-37.5977L69.2383 0.976562C70.0195 9.13086 73.877 12.8906 81.4453 12.8906ZM82.2266 0.927734C81.543 0.927734 81.25 0.585938 81.1523-0.195312L77.832-34.7656L101.27-34.7656L97.9492-0.195312C97.8516 0.585938 97.5586 0.927734 96.875 0.927734ZM85.5957-42.9688L95.7031-42.9688L96.0938-48.4375C96.1914-49.7559 96.4355-50.293 97.2168-50.8789L110.01-60.0098C115.479-63.916 109.619-72.1191 104.004-68.0664L91.6992-59.1797C88.1836-56.6406 86.5234-53.6133 86.1328-49.1211Z"/>
  </g>
  <g id="Regular-S" transform="matrix(1 0 0 1 1391.2 696)">
   <path class="monochrome-0 multicolor-0:tintColor hierarchical-0:secondary SFSymbolsPreviewWireframe" d="M21.8262 2.92969L63.1348 2.92969C63.0859 2.53906 63.0859 2.24609 63.0371 1.9043L62.4512-4.15039L21.9238-4.15039C18.5547-4.15039 16.7969-5.9082 16.7969-9.27734L16.7969-49.1211C16.7969-50.2441 16.8457-50.7324 17.2852-51.2207L24.8535-61.2305C25.4395-62.1094 25.6836-62.793 25.6836-63.916L25.6836-70.8984C25.6836-72.6074 26.4648-73.3887 27.9785-73.3887L60.3027-73.3887C61.8652-73.3887 62.5977-72.6074 62.5977-70.8984L62.5977-63.916C62.5977-62.793 62.8418-62.1094 63.4277-61.2305L71.0449-51.2207C71.3379-50.8301 71.4355-50.5371 71.4355-49.9512L78.5156-49.9512C78.4668-52.0996 78.0762-53.1738 77.0508-54.5898L69.6289-64.4043L69.6289-71.875C69.6289-77.3926 66.3086-80.4688 60.3516-80.4688L27.9297-80.4688C21.9727-80.4688 18.6523-77.3926 18.6523-71.875L18.6523-64.4043L11.2793-54.5898C10.1562-53.0762 9.76562-51.9531 9.76562-49.5117L9.76562-8.93555C9.76562-1.02539 13.7695 2.92969 21.8262 2.92969ZM33.9844-62.0605L54.2969-62.0605C55.8105-62.0605 57.0801-63.3301 57.0801-64.8926C57.0801-66.4062 55.8105-67.7246 54.2969-67.7246L33.9844-67.7246C32.4707-67.7246 31.2012-66.4062 31.2012-64.8926C31.2012-63.3301 32.4707-62.0605 33.9844-62.0605Z"/>
   <path class="monochrome-1 multicolor-1:tintColor hierarchical-1:primary SFSymbolsPreviewWireframe" d="M77.1484 9.91211L94.9707 9.91211C100.293 9.91211 102.881 7.17773 103.467 1.36719L107.471-40.332C107.715-42.6758 106.348-44.2383 104.053-44.2383L68.0664-44.2383C65.8203-44.2383 64.4531-42.627 64.6973-40.332L68.7012 1.36719C69.2383 7.17773 71.8262 9.91211 77.1484 9.91211ZM77.4414 3.07617C76.123 3.07617 75.5371 2.53906 75.3906 1.12305L71.7285-37.4023L100.439-37.4023L96.7773 1.12305C96.582 2.53906 95.9961 3.07617 94.7266 3.07617ZM83.2031-42.041L89.1602-42.041L89.4043-45.6543C89.5508-47.5586 90.0879-48.6328 91.4062-49.5605L104.199-58.7402C107.422-61.084 104.004-65.9668 100.537-63.4766L88.2324-54.5898C85.2051-52.3926 83.8867-49.9512 83.5449-46.0449Z"/>
  </g>
  <g id="Ultralight-S" transform="matrix(1 0 0 1 504.792 696)">
   <path class="monochrome-0 multicolor-0:tintColor hierarchical-0:secondary SFSymbolsPreviewWireframe" d="M19.7373 1.65821L62.9985 1.65821C62.9043 1.26759 62.8589 0.83839 62.8101 0.405774L62.7236-0.517607L19.835-0.517607C14.6494-0.517607 11.9834-3.22903 11.9834-8.41456L11.9834-46.2149C11.9834-49.3359 12.0777-50.3691 13.5616-52.4014L20.4942-61.5029C20.7622-61.8823 20.8702-62.2481 20.8702-62.69L20.8702-68.7642C20.8702-72.6074 22.6958-74.6601 26.2529-74.6601L57.2149-74.6601C60.73-74.6601 62.5977-72.6074 62.5977-68.7642L62.5977-62.69C62.5977-62.2481 62.7056-61.8823 62.9736-61.5029L69.8643-52.4014C71.3833-50.4214 71.481-49.3565 71.481-46.4546L73.7022-46.4546C73.6988-50.0108 73.4444-51.2666 71.647-53.6816L64.8155-62.7695L64.8155-68.9234C64.8155-74.0777 62.2217-76.836 57.3091-76.836L26.1587-76.836C21.2461-76.836 18.6523-74.0777 18.6523-68.9234L18.6523-62.7695L11.7788-53.6816C9.97461-51.2144 9.76562-49.9551 9.76562-46.1968L9.76562-8.29981C9.76562-1.75195 13.2246 1.65821 19.7373 1.65821ZM30.4878-65.7387L52.3897-65.7387C52.9951-65.7387 53.4473-66.1909 53.4473-66.7998C53.4473-67.3599 52.9951-67.8608 52.3897-67.8608L30.4878-67.8608C29.9278-67.8608 29.4302-67.3599 29.4302-66.7998C29.4302-66.1909 29.9278-65.7387 30.4878-65.7387Z"/>
   <path class="monochrome-1 multicolor-1:tintColor hierarchical-1:primary SFSymbolsPreviewWireframe" d="M72.3804 6.1431L89.5215 6.1431C93.4815 6.1431 95.6607 4.13528 96.0196 0.0957131L100.023-41.331C100.131-42.6304 99.4908-43.4209 98.1949-43.4209L63.7071-43.4209C62.4146-43.4209 61.7739-42.627 61.8819-41.331L65.8858 0.0957131C66.2866 4.13528 68.4204 6.1431 72.3804 6.1431ZM72.4009 3.93896C69.7657 3.93896 68.2715 2.58447 67.9888-0.103018L64.1451-41.1714L97.7603-41.1714L93.9165-0.103018C93.6758 2.58447 92.1363 3.93896 89.5498 3.93896ZM79.979-42.5405L82.3487-42.5405L82.5928-45.9268C82.7393-48.1035 83.4581-49.314 85.3213-50.6958L98.1143-59.9209C99.3389-60.8115 98.0552-62.9243 96.4956-61.751L84.1909-52.8643C81.4361-50.8941 80.5264-49.1338 80.2754-46.0449Z"/>
  </g>
 </g>
</svg>
