<?xml version="1.0" encoding="UTF-8"?>
<!--Generator: Apple Native CoreSVG 232.5-->
<!DOCTYPE svg
PUBLIC "-//W3C//DTD SVG 1.1//EN"
       "http://www.w3.org/Graphics/SVG/1.1/DTD/svg11.dtd">
<svg version="1.1" xmlns="http://www.w3.org/2000/svg" xmlns:xlink="http://www.w3.org/1999/xlink" width="3300" height="2200">
 <!--glyph: "uni100AD3.medium", point size: 100.0, font version: "19.0d7e1", template writer version: "128"-->
 <style>.monochrome-0 {-sfsymbols-motion-group:0}

.multicolor-0:tintColor {-sfsymbols-motion-group:0}

.hierarchical-0:primary {-sfsymbols-motion-group:0}

.SFSymbolsPreviewWireframe {fill:none;opacity:1.0;stroke:black;stroke-width:0.5}
</style>
 <g id="Notes">
  <rect height="2200" id="artboard" style="fill:white;opacity:1" width="3300" x="0" y="0"/>
  <line style="fill:none;stroke:black;opacity:1;stroke-width:0.5;" x1="263" x2="3036" y1="292" y2="292"/>
  <text style="stroke:none;fill:black;font-family:sans-serif;font-size:13;font-weight:bold;" transform="matrix(1 0 0 1 263 322)">Weight/Scale Variations</text>
  <text style="stroke:none;fill:black;font-family:sans-serif;font-size:13;text-anchor:middle;" transform="matrix(1 0 0 1 559.711 322)">Ultralight</text>
  <text style="stroke:none;fill:black;font-family:sans-serif;font-size:13;text-anchor:middle;" transform="matrix(1 0 0 1 856.422 322)">Thin</text>
  <text style="stroke:none;fill:black;font-family:sans-serif;font-size:13;text-anchor:middle;" transform="matrix(1 0 0 1 1153.13 322)">Light</text>
  <text style="stroke:none;fill:black;font-family:sans-serif;font-size:13;text-anchor:middle;" transform="matrix(1 0 0 1 1449.84 322)">Regular</text>
  <text style="stroke:none;fill:black;font-family:sans-serif;font-size:13;text-anchor:middle;" transform="matrix(1 0 0 1 1746.56 322)">Medium</text>
  <text style="stroke:none;fill:black;font-family:sans-serif;font-size:13;text-anchor:middle;" transform="matrix(1 0 0 1 2043.27 322)">Semibold</text>
  <text style="stroke:none;fill:black;font-family:sans-serif;font-size:13;text-anchor:middle;" transform="matrix(1 0 0 1 2339.98 322)">Bold</text>
  <text style="stroke:none;fill:black;font-family:sans-serif;font-size:13;text-anchor:middle;" transform="matrix(1 0 0 1 2636.69 322)">Heavy</text>
  <text style="stroke:none;fill:black;font-family:sans-serif;font-size:13;text-anchor:middle;" transform="matrix(1 0 0 1 2933.4 322)">Black</text>
  <line style="fill:none;stroke:black;opacity:1;stroke-width:0.5;" x1="263" x2="3036" y1="1903" y2="1903"/>
  <g transform="matrix(0.2 0 0 0.2 263 1933)">
   <path d="m46.2402 4.15039c21.5332 0 39.4531-17.8711 39.4531-39.4043s-17.9688-39.4043-39.502-39.4043c-21.4844 0-39.3555 17.8711-39.3555 39.4043s17.9199 39.4043 39.4043 39.4043Zm0-7.42188c-17.7246 0-31.8848-14.209-31.8848-31.9824s14.1113-31.9824 31.8359-31.9824c17.7734 0 32.0312 14.209 32.0312 31.9824s-14.209 31.9824-31.9824 31.9824Zm-17.9688-31.9824c0 2.14844 1.51367 3.61328 3.75977 3.61328h10.498v10.5957c0 2.19727 1.46484 3.71094 3.61328 3.71094 2.24609 0 3.71094-1.51367 3.71094-3.71094v-10.5957h10.5957c2.19727 0 3.71094-1.46484 3.71094-3.61328 0-2.19727-1.51367-3.71094-3.71094-3.71094h-10.5957v-10.5469c0-2.24609-1.46484-3.75977-3.71094-3.75977-2.14844 0-3.61328 1.51367-3.61328 3.75977v10.5469h-10.498c-2.24609 0-3.75977 1.51367-3.75977 3.71094Z"/>
  </g>
  <g transform="matrix(0.2 0 0 0.2 281.506 1933)">
   <path d="m58.5449 14.5508c27.2461 0 49.8047-22.6074 49.8047-49.8047 0-27.2461-22.6074-49.8047-49.8535-49.8047-27.1973 0-49.7559 22.5586-49.7559 49.8047 0 27.1973 22.6074 49.8047 49.8047 49.8047Zm0-8.30078c-23.0469 0-41.4551-18.457-41.4551-41.5039s18.3594-41.5039 41.4062-41.5039 41.5527 18.457 41.5527 41.5039-18.457 41.5039-41.5039 41.5039Zm-22.6562-41.5039c0 2.39258 1.66016 4.00391 4.15039 4.00391h14.3555v14.4043c0 2.44141 1.66016 4.15039 4.05273 4.15039 2.44141 0 4.15039-1.66016 4.15039-4.15039v-14.4043h14.4043c2.44141 0 4.15039-1.61133 4.15039-4.00391 0-2.44141-1.70898-4.15039-4.15039-4.15039h-14.4043v-14.3555c0-2.49023-1.70898-4.19922-4.15039-4.19922-2.39258 0-4.05273 1.70898-4.05273 4.19922v14.3555h-14.3555c-2.49023 0-4.15039 1.70898-4.15039 4.15039Z"/>
  </g>
  <g transform="matrix(0.2 0 0 0.2 304.924 1933)">
   <path d="m74.8535 28.3203c34.8145 0 63.623-28.8086 63.623-63.5742 0-34.8145-28.8574-63.623-63.6719-63.623-34.7656 0-63.5254 28.8086-63.5254 63.623 0 34.7656 28.8086 63.5742 63.5742 63.5742Zm0-9.08203c-30.1758 0-54.4434-24.3164-54.4434-54.4922 0-30.2246 24.2188-54.4922 54.3945-54.4922 30.2246 0 54.541 24.2676 54.541 54.4922 0 30.1758-24.2676 54.4922-54.4922 54.4922Zm-28.8574-54.4922c0 2.58789 1.85547 4.39453 4.58984 4.39453h19.7266v19.7754c0 2.68555 1.85547 4.58984 4.44336 4.58984 2.68555 0 4.54102-1.85547 4.54102-4.58984v-19.7754h19.7754c2.68555 0 4.58984-1.80664 4.58984-4.39453 0-2.73438-1.85547-4.58984-4.58984-4.58984h-19.7754v-19.7266c0-2.73438-1.85547-4.63867-4.54102-4.63867-2.58789 0-4.44336 1.9043-4.44336 4.63867v19.7266h-19.7266c-2.73438 0-4.58984 1.85547-4.58984 4.58984Z"/>
  </g>
  <text style="stroke:none;fill:black;font-family:sans-serif;font-size:13;font-weight:bold;" transform="matrix(1 0 0 1 263 1953)">Design Variations</text>
  <text style="stroke:none;fill:black;font-family:sans-serif;font-size:13;" transform="matrix(1 0 0 1 263 1971)">Symbols are supported in up to nine weights and three scales.</text>
  <text style="stroke:none;fill:black;font-family:sans-serif;font-size:13;" transform="matrix(1 0 0 1 263 1989)">For optimal layout with text and other symbols, vertically align</text>
  <text style="stroke:none;fill:black;font-family:sans-serif;font-size:13;" transform="matrix(1 0 0 1 263 2007)">symbols with the adjacent text.</text>
  <line style="fill:none;stroke:#00AEEF;stroke-width:0.5;opacity:1.0;" x1="776" x2="776" y1="1919" y2="1933"/>
  <g transform="matrix(0.2 0 0 0.2 776 1933)">
   <path d="m16.5527 0.78125c2.58789 0 3.85742-0.976562 4.78516-3.71094l6.29883-17.2363h28.8086l6.29883 17.2363c0.927734 2.73438 2.19727 3.71094 4.73633 3.71094 2.58789 0 4.24805-1.5625 4.24805-4.00391 0-0.830078-0.146484-1.61133-0.537109-2.63672l-22.9004-60.9863c-1.12305-2.97852-3.125-4.49219-6.25-4.49219-3.02734 0-5.07812 1.46484-6.15234 4.44336l-22.9004 61.084c-0.390625 1.02539-0.537109 1.80664-0.537109 2.63672 0 2.44141 1.5625 3.95508 4.10156 3.95508Zm13.4766-28.3691 11.8652-32.8613h0.244141l11.8652 32.8613Z"/>
  </g>
  <line style="fill:none;stroke:#00AEEF;stroke-width:0.5;opacity:1.0;" x1="792.836" x2="792.836" y1="1919" y2="1933"/>
  <text style="stroke:none;fill:black;font-family:sans-serif;font-size:13;font-weight:bold;" transform="matrix(1 0 0 1 776 1953)">Margins</text>
  <text style="stroke:none;fill:black;font-family:sans-serif;font-size:13;" transform="matrix(1 0 0 1 776 1971)">Leading and trailing margins on the left and right side of each symbol</text>
  <text style="stroke:none;fill:black;font-family:sans-serif;font-size:13;" transform="matrix(1 0 0 1 776 1989)">can be adjusted by modifying the x-location of the margin guidelines.</text>
  <text style="stroke:none;fill:black;font-family:sans-serif;font-size:13;" transform="matrix(1 0 0 1 776 2007)">Modifications are automatically applied proportionally to all</text>
  <text style="stroke:none;fill:black;font-family:sans-serif;font-size:13;" transform="matrix(1 0 0 1 776 2025)">scales and weights.</text>
  <g transform="matrix(0.2 0 0 0.2 1289 1933)">
   <path d="m14.209 9.32617 8.49609 8.54492c4.29688 4.3457 9.22852 4.05273 13.8672-1.07422l53.4668-58.9355-4.83398-4.88281-53.0762 58.3984c-1.75781 2.00195-3.41797 2.49023-5.76172 0.146484l-5.85938-5.81055c-2.34375-2.29492-1.80664-4.00391 0.195312-5.81055l57.373-54.0039-4.88281-4.83398-57.959 54.4434c-4.93164 4.58984-5.32227 9.47266-1.02539 13.8184Zm32.0801-90.9668c-2.09961 2.05078-2.24609 4.93164-1.07422 6.88477 1.17188 1.80664 3.4668 2.97852 6.68945 2.14844 7.32422-1.70898 14.9414-2.00195 22.0703 2.68555l-2.92969 7.27539c-1.70898 4.15039-0.830078 7.08008 1.85547 9.81445l11.4746 11.5723c2.44141 2.44141 4.49219 2.53906 7.32422 2.05078l5.32227-0.976562 3.32031 3.36914-0.195312 2.7832c-0.195312 2.49023 0.439453 4.39453 2.88086 6.78711l3.80859 3.71094c2.39258 2.39258 5.46875 2.53906 7.8125 0.195312l14.5508-14.5996c2.34375-2.34375 2.24609-5.32227-0.146484-7.71484l-3.85742-3.80859c-2.39258-2.39258-4.24805-3.17383-6.64062-2.97852l-2.88086 0.244141-3.22266-3.17383 1.2207-5.61523c0.634766-2.83203-0.146484-5.0293-3.07617-7.95898l-10.9863-10.9375c-16.6992-16.6016-38.8672-16.2109-53.3203-1.75781Zm7.4707 1.85547c12.1582-8.88672 28.6133-7.37305 39.7461 3.75977l12.1582 12.0605c1.17188 1.17188 1.36719 2.09961 1.02539 3.80859l-1.61133 7.42188 7.51953 7.42188 4.93164-0.292969c1.26953-0.0488281 1.66016 0.0488281 2.63672 1.02539l2.88086 2.88086-12.207 12.207-2.88086-2.88086c-0.976562-0.976562-1.12305-1.36719-1.07422-2.68555l0.341797-4.88281-7.4707-7.42188-7.61719 1.26953c-1.61133 0.341797-2.34375 0.195312-3.56445-0.976562l-10.0098-10.0098c-1.26953-1.17188-1.41602-2.00195-0.634766-3.85742l4.39453-10.4492c-7.8125-7.27539-17.9688-10.4004-28.125-7.42188-0.78125 0.195312-1.07422-0.439453-0.439453-0.976562Z"/>
  </g>
  <text style="stroke:none;fill:black;font-family:sans-serif;font-size:13;font-weight:bold;" transform="matrix(1 0 0 1 1289 1953)">Exporting</text>
  <text style="stroke:none;fill:black;font-family:sans-serif;font-size:13;" transform="matrix(1 0 0 1 1289 1971)">Symbols should be outlined when exporting to ensure the</text>
  <text style="stroke:none;fill:black;font-family:sans-serif;font-size:13;" transform="matrix(1 0 0 1 1289 1989)">design is preserved when submitting to Xcode.</text>
  <text id="template-version" style="stroke:none;fill:black;font-family:sans-serif;font-size:13;text-anchor:end;" transform="matrix(1 0 0 1 3036 1933)">Template v.5.0</text>
  <text style="stroke:none;fill:black;font-family:sans-serif;font-size:13;text-anchor:end;" transform="matrix(1 0 0 1 3036 1951)">Requires Xcode 15 or greater</text>
  <text id="descriptive-name" style="stroke:none;fill:black;font-family:sans-serif;font-size:13;text-anchor:end;" transform="matrix(1 0 0 1 3036 1969)">Generated from graduationcap</text>
  <text style="stroke:none;fill:black;font-family:sans-serif;font-size:13;text-anchor:end;" transform="matrix(1 0 0 1 3036 1987)">Typeset at 100.0 points</text>
  <text style="stroke:none;fill:black;font-family:sans-serif;font-size:13;" transform="matrix(1 0 0 1 263 726)">Small</text>
  <text style="stroke:none;fill:black;font-family:sans-serif;font-size:13;" transform="matrix(1 0 0 1 263 1156)">Medium</text>
  <text style="stroke:none;fill:black;font-family:sans-serif;font-size:13;" transform="matrix(1 0 0 1 263 1586)">Large</text>
 </g>
 <g id="Guides">
  <g id="H-reference" style="fill:#27AAE1;stroke:none;" transform="matrix(1 0 0 1 339 696)">
   <path d="M0.993654 0L3.63775 0L29.3281-67.1323L30.0303-67.1323L30.0303-70.459L28.1226-70.459ZM11.6885-24.4799L46.9815-24.4799L46.2315-26.7285L12.4385-26.7285ZM55.1196 0L57.7637 0L30.6382-70.459L29.4326-70.459L29.4326-67.1323Z"/>
  </g>
  <line id="Baseline-S" style="fill:none;stroke:#27AAE1;opacity:1;stroke-width:0.5;" x1="263" x2="3036" y1="696" y2="696"/>
  <line id="Capline-S" style="fill:none;stroke:#27AAE1;opacity:1;stroke-width:0.5;" x1="263" x2="3036" y1="625.541" y2="625.541"/>
  <g id="H-reference" style="fill:#27AAE1;stroke:none;" transform="matrix(1 0 0 1 339 1126)">
   <path d="M0.993654 0L3.63775 0L29.3281-67.1323L30.0303-67.1323L30.0303-70.459L28.1226-70.459ZM11.6885-24.4799L46.9815-24.4799L46.2315-26.7285L12.4385-26.7285ZM55.1196 0L57.7637 0L30.6382-70.459L29.4326-70.459L29.4326-67.1323Z"/>
  </g>
  <line id="Baseline-M" style="fill:none;stroke:#27AAE1;opacity:1;stroke-width:0.5;" x1="263" x2="3036" y1="1126" y2="1126"/>
  <line id="Capline-M" style="fill:none;stroke:#27AAE1;opacity:1;stroke-width:0.5;" x1="263" x2="3036" y1="1055.54" y2="1055.54"/>
  <g id="H-reference" style="fill:#27AAE1;stroke:none;" transform="matrix(1 0 0 1 339 1556)">
   <path d="M0.993654 0L3.63775 0L29.3281-67.1323L30.0303-67.1323L30.0303-70.459L28.1226-70.459ZM11.6885-24.4799L46.9815-24.4799L46.2315-26.7285L12.4385-26.7285ZM55.1196 0L57.7637 0L30.6382-70.459L29.4326-70.459L29.4326-67.1323Z"/>
  </g>
  <line id="Baseline-L" style="fill:none;stroke:#27AAE1;opacity:1;stroke-width:0.5;" x1="263" x2="3036" y1="1556" y2="1556"/>
  <line id="Capline-L" style="fill:none;stroke:#27AAE1;opacity:1;stroke-width:0.5;" x1="263" x2="3036" y1="1485.54" y2="1485.54"/>
  <line id="left-margin-Ultralight-S" style="fill:none;stroke:#00AEEF;stroke-width:0.5;opacity:1.0;" x1="499.285" x2="499.285" y1="600.785" y2="720.121"/>
  <line id="right-margin-Ultralight-S" style="fill:none;stroke:#00AEEF;stroke-width:0.5;opacity:1.0;" x1="620.137" x2="620.137" y1="600.785" y2="720.121"/>
  <line id="left-margin-Regular-S" style="fill:none;stroke:#00AEEF;stroke-width:0.5;opacity:1.0;" x1="1387.78" x2="1387.78" y1="600.785" y2="720.121"/>
  <line id="right-margin-Regular-S" style="fill:none;stroke:#00AEEF;stroke-width:0.5;opacity:1.0;" x1="1511.9" x2="1511.9" y1="600.785" y2="720.121"/>
  <line id="left-margin-Black-S" style="fill:none;stroke:#00AEEF;stroke-width:0.5;opacity:1.0;" x1="2866.65" x2="2866.65" y1="600.785" y2="720.121"/>
  <line id="right-margin-Black-S" style="fill:none;stroke:#00AEEF;stroke-width:0.5;opacity:1.0;" x1="3000.15" x2="3000.15" y1="600.785" y2="720.121"/>
 </g>
 <g id="Symbols">
  <g id="Black-S" transform="matrix(1 0 0 1 2866.65 696)">
   <path class="monochrome-0 multicolor-0:tintColor hierarchical-0:primary SFSymbolsPreviewWireframe" d="M66.748-18.0176C70.4102-17.9688 74.3652-18.9453 79.0039-21.0449L117.578-38.6719C121.338-40.3809 123.73-43.7012 123.73-47.6074C123.73-51.5137 121.338-54.834 117.578-56.543L79.0039-74.1699C74.3652-76.2695 70.4102-77.2461 66.748-77.1973C63.0859-77.2461 59.1309-76.2695 54.4922-74.1699L15.918-56.543C12.1582-54.834 9.76562-51.5137 9.76562-47.6074C9.76562-43.7012 12.1582-40.3809 15.918-38.6719L54.4922-21.0449C59.1309-18.9453 63.0859-17.9688 66.748-18.0176ZM66.748-32.0312C64.7949-32.0312 62.9883-32.5684 60.0586-33.8867L31.2012-46.9727C30.8594-47.1191 30.7129-47.3145 30.7129-47.6074C30.7129-47.9004 30.8594-48.0957 31.2012-48.2422L60.0586-61.3281C62.9883-62.6465 64.7949-63.1836 66.748-63.1836C68.7012-63.1836 70.5078-62.6465 73.4375-61.3281L102.295-48.2422C102.637-48.0957 102.783-47.9004 102.783-47.6074C102.783-47.3145 102.637-47.1191 102.295-46.9727L73.4375-33.8867C70.5078-32.5684 68.7012-32.0312 66.748-32.0312ZM25.4395-20.8496C25.4395-5.51758 44.6289 4.39453 66.748 4.39453C88.8672 4.39453 108.057-5.51758 108.057-20.8496L108.057-39.9414L95.2637-39.9414L95.2637-20.8496C95.2637-14.1113 83.0078-7.91016 66.748-7.91016C50.4883-7.91016 38.2324-14.1113 38.2324-20.8496L38.2324-39.9414L25.4395-39.9414ZM66.748-40.332C72.3145-40.332 77.4414-43.1641 77.4414-47.6074C77.4414-52.0508 72.2656-54.7852 66.748-54.7852C61.1816-54.7852 56.0059-52.002 56.0059-47.6074C56.0059-43.1641 61.1328-40.332 66.748-40.332ZM49.1699-35.1074L64.8438-42.627L60.4004-49.5605L40.4297-39.7461ZM40.4297 1.61133L49.1699 1.66016L49.1699-35.1074L40.4297-39.7461ZM35.4492 3.17383L35.4492 14.4043C35.4492 18.7988 38.3789 21.7285 42.7734 21.7285L46.7773 21.7285C51.1719 21.7285 54.1016 18.7988 54.1016 14.4043L54.1016 3.17383C54.1016-1.2207 51.1719-4.15039 46.7773-4.15039L42.7734-4.15039C38.3789-4.15039 35.4492-1.2207 35.4492 3.17383Z"/>
  </g>
  <g id="Regular-S" transform="matrix(1 0 0 1 1387.78 696)">
   <path class="monochrome-0 multicolor-0:tintColor hierarchical-0:primary SFSymbolsPreviewWireframe" d="M62.0605-21.7285C65.4297-21.6797 68.75-22.6074 72.8516-24.4629L110.303-41.5527C113.037-42.7734 114.355-45.2148 114.355-47.6562C114.355-50.0977 113.037-52.5879 110.303-53.8086L72.8516-70.8984C68.75-72.7539 65.4297-73.6816 62.0605-73.6328C58.7402-73.6816 55.3711-72.7539 51.2695-70.8984L13.8184-53.8086C11.084-52.5879 9.76562-50.0977 9.76562-47.6562C9.76562-45.2148 11.084-42.7734 13.8184-41.5527L51.2695-24.4629C55.3711-22.6074 58.7402-21.6797 62.0605-21.7285ZM62.0605-28.6621C59.5703-28.6621 57.1289-29.2969 53.9062-30.8105L19.3359-46.4844C18.7012-46.7773 18.4082-47.168 18.4082-47.6562C18.4082-48.1934 18.7012-48.584 19.3359-48.877L53.9062-64.5508C57.1289-66.0156 59.5703-66.6992 62.0605-66.6992C64.5508-66.6992 66.9922-66.0156 70.2148-64.5508L104.785-48.877C105.42-48.584 105.762-48.1934 105.762-47.6562C105.762-47.168 105.42-46.7773 104.785-46.4844L70.2148-30.8105C66.9922-29.2969 64.5508-28.6621 62.0605-28.6621ZM24.2188-18.8965C24.2188-6.44531 39.3066 3.07617 62.0605 3.07617C84.8633 3.07617 99.9023-6.44531 99.9023-18.8965L99.9023-39.3066L92.8711-39.3066L92.8711-18.8965C92.8711-10.4004 80.6152-3.51562 62.0605-3.51562C43.5059-3.51562 31.25-10.4004 31.25-18.8965L31.25-39.3066L24.2188-39.3066ZM62.2559-43.1641C66.3086-43.1641 70.5566-45.0195 70.5566-47.6562C70.5566-50.293 66.3086-52.0996 62.2559-52.0996C58.2031-52.0996 53.9062-50.293 53.9062-47.6562C53.9062-45.0195 58.2031-43.1641 62.2559-43.1641ZM39.4531-32.8613L61.5723-44.9219L59.1797-49.3652L33.8379-35.8398ZM33.8379 5.37109L39.4531 5.37109L39.4531-32.8613L33.8379-35.5957ZM30.8105 6.5918L30.8105 16.6504C30.8105 19.8242 32.9102 21.9238 36.084 21.9238L37.1582 21.9238C40.332 21.9238 42.4316 19.8242 42.4316 16.6504L42.4316 6.5918C42.4316 3.41797 40.332 1.31836 37.1582 1.31836L36.084 1.31836C32.9102 1.31836 30.8105 3.41797 30.8105 6.5918Z"/>
  </g>
  <g id="Ultralight-S" transform="matrix(1 0 0 1 499.285 696)">
   <path class="monochrome-0 multicolor-0:tintColor hierarchical-0:primary SFSymbolsPreviewWireframe" d="M60.4258-23.6357C63.3408-23.5869 66.2071-24.1968 70.2178-26.0522L108.713-43.7324C110.267-44.4536 111.086-45.7144 111.086-47.2022C111.086-48.6445 110.267-49.9541 108.713-50.6299L70.2178-68.3555C66.2071-70.211 63.3408-70.8208 60.4258-70.772C57.5142-70.8208 54.6899-70.211 50.6792-68.3555L12.1382-50.6299C10.6299-49.9541 9.76562-48.6445 9.76562-47.2022C9.76562-45.7144 10.6299-44.4536 12.1382-43.7324L50.6792-26.0522C54.6899-24.1968 57.5142-23.5869 60.4258-23.6357ZM60.4258-25.8467C57.6631-25.8467 55.1309-26.3906 51.5904-28.0405L13.3873-45.6216C12.6163-45.96 12.1871-46.5776 12.1871-47.2022C12.1871-47.8301 12.6163-48.4478 13.3873-48.7861L51.5904-66.3672C55.1309-68.0137 57.6631-68.561 60.4258-68.561C63.1885-68.561 65.7207-68.0137 69.3066-66.3672L107.464-48.7861C108.235-48.4478 108.668-47.8301 108.668-47.2022C108.668-46.5776 108.235-45.96 107.464-45.6216L69.3066-28.0405C65.7207-26.3906 63.1885-25.8467 60.4258-25.8467ZM26.7617-18.7148C26.7617-11.5312 38.9434-1.23776 60.4258-1.23776C81.9571-1.23776 94.0899-11.5312 94.0899-18.7148L94.0899-37.7173L91.9175-37.7173L91.9175-18.7148C91.9175-12.8525 80.6152-3.42481 60.4258-3.42481C40.2364-3.42481 28.9795-12.8525 28.9795-18.7148L28.9795-37.7173L26.7617-37.7173ZM60.4395-43.709C64.7647-43.709 67.7412-45.5644 67.7412-47.2476C67.7412-48.7944 64.7647-50.6465 60.4395-50.6465C56.1143-50.6465 53.1343-48.7944 53.1343-47.2476C53.1343-45.5644 56.1143-43.709 60.4395-43.709ZM35.0938-34.4053L60.21-46.1479L59.4067-47.8213L32.9751-35.522ZM32.9751-0.214311L35.0938-0.214311L35.0938-34.4053L32.9751-35.5049ZM30.0386-1.44574L30.0386 8.88532C30.0386 11.1509 31.2754 12.3878 33.541 12.3878L34.5244 12.3878C36.7447 12.3878 38.0269 11.1509 38.0269 8.88532L38.0269-1.44574C38.0269-3.66596 36.7447-4.94819 34.5244-4.94819L33.541-4.94819C31.2754-4.94819 30.0386-3.66596 30.0386-1.44574Z"/>
  </g>
 </g>
</svg>
