<?xml version="1.0" encoding="UTF-8"?>
<!--Generator: Apple Native CoreSVG 232.5-->
<!DOCTYPE svg
PUBLIC "-//W3C//DTD SVG 1.1//EN"
       "http://www.w3.org/Graphics/SVG/1.1/DTD/svg11.dtd">
<svg version="1.1" xmlns="http://www.w3.org/2000/svg" xmlns:xlink="http://www.w3.org/1999/xlink" width="3300" height="2200">
 <!--glyph: "uni100637.medium", point size: 100.0, font version: "19.0d7e1", template writer version: "128"-->
 <style>.monochrome-0 {-sfsymbols-motion-group:0}

.multicolor-0:tintColor {-sfsymbols-motion-group:0}

.hierarchical-0:primary {-sfsymbols-motion-group:0}

.SFSymbolsPreviewWireframe {fill:none;opacity:1.0;stroke:black;stroke-width:0.5}
</style>
 <g id="Notes">
  <rect height="2200" id="artboard" style="fill:white;opacity:1" width="3300" x="0" y="0"/>
  <line style="fill:none;stroke:black;opacity:1;stroke-width:0.5;" x1="263" x2="3036" y1="292" y2="292"/>
  <text style="stroke:none;fill:black;font-family:sans-serif;font-size:13;font-weight:bold;" transform="matrix(1 0 0 1 263 322)">Weight/Scale Variations</text>
  <text style="stroke:none;fill:black;font-family:sans-serif;font-size:13;text-anchor:middle;" transform="matrix(1 0 0 1 559.711 322)">Ultralight</text>
  <text style="stroke:none;fill:black;font-family:sans-serif;font-size:13;text-anchor:middle;" transform="matrix(1 0 0 1 856.422 322)">Thin</text>
  <text style="stroke:none;fill:black;font-family:sans-serif;font-size:13;text-anchor:middle;" transform="matrix(1 0 0 1 1153.13 322)">Light</text>
  <text style="stroke:none;fill:black;font-family:sans-serif;font-size:13;text-anchor:middle;" transform="matrix(1 0 0 1 1449.84 322)">Regular</text>
  <text style="stroke:none;fill:black;font-family:sans-serif;font-size:13;text-anchor:middle;" transform="matrix(1 0 0 1 1746.56 322)">Medium</text>
  <text style="stroke:none;fill:black;font-family:sans-serif;font-size:13;text-anchor:middle;" transform="matrix(1 0 0 1 2043.27 322)">Semibold</text>
  <text style="stroke:none;fill:black;font-family:sans-serif;font-size:13;text-anchor:middle;" transform="matrix(1 0 0 1 2339.98 322)">Bold</text>
  <text style="stroke:none;fill:black;font-family:sans-serif;font-size:13;text-anchor:middle;" transform="matrix(1 0 0 1 2636.69 322)">Heavy</text>
  <text style="stroke:none;fill:black;font-family:sans-serif;font-size:13;text-anchor:middle;" transform="matrix(1 0 0 1 2933.4 322)">Black</text>
  <line style="fill:none;stroke:black;opacity:1;stroke-width:0.5;" x1="263" x2="3036" y1="1903" y2="1903"/>
  <g transform="matrix(0.2 0 0 0.2 263 1933)">
   <path d="m46.2402 4.15039c21.5332 0 39.4531-17.8711 39.4531-39.4043s-17.9688-39.4043-39.502-39.4043c-21.4844 0-39.3555 17.8711-39.3555 39.4043s17.9199 39.4043 39.4043 39.4043Zm0-7.42188c-17.7246 0-31.8848-14.209-31.8848-31.9824s14.1113-31.9824 31.8359-31.9824c17.7734 0 32.0312 14.209 32.0312 31.9824s-14.209 31.9824-31.9824 31.9824Zm-17.9688-31.9824c0 2.14844 1.51367 3.61328 3.75977 3.61328h10.498v10.5957c0 2.19727 1.46484 3.71094 3.61328 3.71094 2.24609 0 3.71094-1.51367 3.71094-3.71094v-10.5957h10.5957c2.19727 0 3.71094-1.46484 3.71094-3.61328 0-2.19727-1.51367-3.71094-3.71094-3.71094h-10.5957v-10.5469c0-2.24609-1.46484-3.75977-3.71094-3.75977-2.14844 0-3.61328 1.51367-3.61328 3.75977v10.5469h-10.498c-2.24609 0-3.75977 1.51367-3.75977 3.71094Z"/>
  </g>
  <g transform="matrix(0.2 0 0 0.2 281.506 1933)">
   <path d="m58.5449 14.5508c27.2461 0 49.8047-22.6074 49.8047-49.8047 0-27.2461-22.6074-49.8047-49.8535-49.8047-27.1973 0-49.7559 22.5586-49.7559 49.8047 0 27.1973 22.6074 49.8047 49.8047 49.8047Zm0-8.30078c-23.0469 0-41.4551-18.457-41.4551-41.5039s18.3594-41.5039 41.4062-41.5039 41.5527 18.457 41.5527 41.5039-18.457 41.5039-41.5039 41.5039Zm-22.6562-41.5039c0 2.39258 1.66016 4.00391 4.15039 4.00391h14.3555v14.4043c0 2.44141 1.66016 4.15039 4.05273 4.15039 2.44141 0 4.15039-1.66016 4.15039-4.15039v-14.4043h14.4043c2.44141 0 4.15039-1.61133 4.15039-4.00391 0-2.44141-1.70898-4.15039-4.15039-4.15039h-14.4043v-14.3555c0-2.49023-1.70898-4.19922-4.15039-4.19922-2.39258 0-4.05273 1.70898-4.05273 4.19922v14.3555h-14.3555c-2.49023 0-4.15039 1.70898-4.15039 4.15039Z"/>
  </g>
  <g transform="matrix(0.2 0 0 0.2 304.924 1933)">
   <path d="m74.8535 28.3203c34.8145 0 63.623-28.8086 63.623-63.5742 0-34.8145-28.8574-63.623-63.6719-63.623-34.7656 0-63.5254 28.8086-63.5254 63.623 0 34.7656 28.8086 63.5742 63.5742 63.5742Zm0-9.08203c-30.1758 0-54.4434-24.3164-54.4434-54.4922 0-30.2246 24.2188-54.4922 54.3945-54.4922 30.2246 0 54.541 24.2676 54.541 54.4922 0 30.1758-24.2676 54.4922-54.4922 54.4922Zm-28.8574-54.4922c0 2.58789 1.85547 4.39453 4.58984 4.39453h19.7266v19.7754c0 2.68555 1.85547 4.58984 4.44336 4.58984 2.68555 0 4.54102-1.85547 4.54102-4.58984v-19.7754h19.7754c2.68555 0 4.58984-1.80664 4.58984-4.39453 0-2.73438-1.85547-4.58984-4.58984-4.58984h-19.7754v-19.7266c0-2.73438-1.85547-4.63867-4.54102-4.63867-2.58789 0-4.44336 1.9043-4.44336 4.63867v19.7266h-19.7266c-2.73438 0-4.58984 1.85547-4.58984 4.58984Z"/>
  </g>
  <text style="stroke:none;fill:black;font-family:sans-serif;font-size:13;font-weight:bold;" transform="matrix(1 0 0 1 263 1953)">Design Variations</text>
  <text style="stroke:none;fill:black;font-family:sans-serif;font-size:13;" transform="matrix(1 0 0 1 263 1971)">Symbols are supported in up to nine weights and three scales.</text>
  <text style="stroke:none;fill:black;font-family:sans-serif;font-size:13;" transform="matrix(1 0 0 1 263 1989)">For optimal layout with text and other symbols, vertically align</text>
  <text style="stroke:none;fill:black;font-family:sans-serif;font-size:13;" transform="matrix(1 0 0 1 263 2007)">symbols with the adjacent text.</text>
  <line style="fill:none;stroke:#00AEEF;stroke-width:0.5;opacity:1.0;" x1="776" x2="776" y1="1919" y2="1933"/>
  <g transform="matrix(0.2 0 0 0.2 776 1933)">
   <path d="m16.5527 0.78125c2.58789 0 3.85742-0.976562 4.78516-3.71094l6.29883-17.2363h28.8086l6.29883 17.2363c0.927734 2.73438 2.19727 3.71094 4.73633 3.71094 2.58789 0 4.24805-1.5625 4.24805-4.00391 0-0.830078-0.146484-1.61133-0.537109-2.63672l-22.9004-60.9863c-1.12305-2.97852-3.125-4.49219-6.25-4.49219-3.02734 0-5.07812 1.46484-6.15234 4.44336l-22.9004 61.084c-0.390625 1.02539-0.537109 1.80664-0.537109 2.63672 0 2.44141 1.5625 3.95508 4.10156 3.95508Zm13.4766-28.3691 11.8652-32.8613h0.244141l11.8652 32.8613Z"/>
  </g>
  <line style="fill:none;stroke:#00AEEF;stroke-width:0.5;opacity:1.0;" x1="792.836" x2="792.836" y1="1919" y2="1933"/>
  <text style="stroke:none;fill:black;font-family:sans-serif;font-size:13;font-weight:bold;" transform="matrix(1 0 0 1 776 1953)">Margins</text>
  <text style="stroke:none;fill:black;font-family:sans-serif;font-size:13;" transform="matrix(1 0 0 1 776 1971)">Leading and trailing margins on the left and right side of each symbol</text>
  <text style="stroke:none;fill:black;font-family:sans-serif;font-size:13;" transform="matrix(1 0 0 1 776 1989)">can be adjusted by modifying the x-location of the margin guidelines.</text>
  <text style="stroke:none;fill:black;font-family:sans-serif;font-size:13;" transform="matrix(1 0 0 1 776 2007)">Modifications are automatically applied proportionally to all</text>
  <text style="stroke:none;fill:black;font-family:sans-serif;font-size:13;" transform="matrix(1 0 0 1 776 2025)">scales and weights.</text>
  <g transform="matrix(0.2 0 0 0.2 1289 1933)">
   <path d="m14.209 9.32617 8.49609 8.54492c4.29688 4.3457 9.22852 4.05273 13.8672-1.07422l53.4668-58.9355-4.83398-4.88281-53.0762 58.3984c-1.75781 2.00195-3.41797 2.49023-5.76172 0.146484l-5.85938-5.81055c-2.34375-2.29492-1.80664-4.00391 0.195312-5.81055l57.373-54.0039-4.88281-4.83398-57.959 54.4434c-4.93164 4.58984-5.32227 9.47266-1.02539 13.8184Zm32.0801-90.9668c-2.09961 2.05078-2.24609 4.93164-1.07422 6.88477 1.17188 1.80664 3.4668 2.97852 6.68945 2.14844 7.32422-1.70898 14.9414-2.00195 22.0703 2.68555l-2.92969 7.27539c-1.70898 4.15039-0.830078 7.08008 1.85547 9.81445l11.4746 11.5723c2.44141 2.44141 4.49219 2.53906 7.32422 2.05078l5.32227-0.976562 3.32031 3.36914-0.195312 2.7832c-0.195312 2.49023 0.439453 4.39453 2.88086 6.78711l3.80859 3.71094c2.39258 2.39258 5.46875 2.53906 7.8125 0.195312l14.5508-14.5996c2.34375-2.34375 2.24609-5.32227-0.146484-7.71484l-3.85742-3.80859c-2.39258-2.39258-4.24805-3.17383-6.64062-2.97852l-2.88086 0.244141-3.22266-3.17383 1.2207-5.61523c0.634766-2.83203-0.146484-5.0293-3.07617-7.95898l-10.9863-10.9375c-16.6992-16.6016-38.8672-16.2109-53.3203-1.75781Zm7.4707 1.85547c12.1582-8.88672 28.6133-7.37305 39.7461 3.75977l12.1582 12.0605c1.17188 1.17188 1.36719 2.09961 1.02539 3.80859l-1.61133 7.42188 7.51953 7.42188 4.93164-0.292969c1.26953-0.0488281 1.66016 0.0488281 2.63672 1.02539l2.88086 2.88086-12.207 12.207-2.88086-2.88086c-0.976562-0.976562-1.12305-1.36719-1.07422-2.68555l0.341797-4.88281-7.4707-7.42188-7.61719 1.26953c-1.61133 0.341797-2.34375 0.195312-3.56445-0.976562l-10.0098-10.0098c-1.26953-1.17188-1.41602-2.00195-0.634766-3.85742l4.39453-10.4492c-7.8125-7.27539-17.9688-10.4004-28.125-7.42188-0.78125 0.195312-1.07422-0.439453-0.439453-0.976562Z"/>
  </g>
  <text style="stroke:none;fill:black;font-family:sans-serif;font-size:13;font-weight:bold;" transform="matrix(1 0 0 1 1289 1953)">Exporting</text>
  <text style="stroke:none;fill:black;font-family:sans-serif;font-size:13;" transform="matrix(1 0 0 1 1289 1971)">Symbols should be outlined when exporting to ensure the</text>
  <text style="stroke:none;fill:black;font-family:sans-serif;font-size:13;" transform="matrix(1 0 0 1 1289 1989)">design is preserved when submitting to Xcode.</text>
  <text id="template-version" style="stroke:none;fill:black;font-family:sans-serif;font-size:13;text-anchor:end;" transform="matrix(1 0 0 1 3036 1933)">Template v.5.0</text>
  <text style="stroke:none;fill:black;font-family:sans-serif;font-size:13;text-anchor:end;" transform="matrix(1 0 0 1 3036 1951)">Requires Xcode 15 or greater</text>
  <text id="descriptive-name" style="stroke:none;fill:black;font-family:sans-serif;font-size:13;text-anchor:end;" transform="matrix(1 0 0 1 3036 1969)">Generated from figure.2</text>
  <text style="stroke:none;fill:black;font-family:sans-serif;font-size:13;text-anchor:end;" transform="matrix(1 0 0 1 3036 1987)">Typeset at 100.0 points</text>
  <text style="stroke:none;fill:black;font-family:sans-serif;font-size:13;" transform="matrix(1 0 0 1 263 726)">Small</text>
  <text style="stroke:none;fill:black;font-family:sans-serif;font-size:13;" transform="matrix(1 0 0 1 263 1156)">Medium</text>
  <text style="stroke:none;fill:black;font-family:sans-serif;font-size:13;" transform="matrix(1 0 0 1 263 1586)">Large</text>
 </g>
 <g id="Guides">
  <g id="H-reference" style="fill:#27AAE1;stroke:none;" transform="matrix(1 0 0 1 339 696)">
   <path d="M0.993654 0L3.63775 0L29.3281-67.1323L30.0303-67.1323L30.0303-70.459L28.1226-70.459ZM11.6885-24.4799L46.9815-24.4799L46.2315-26.7285L12.4385-26.7285ZM55.1196 0L57.7637 0L30.6382-70.459L29.4326-70.459L29.4326-67.1323Z"/>
  </g>
  <line id="Baseline-S" style="fill:none;stroke:#27AAE1;opacity:1;stroke-width:0.5;" x1="263" x2="3036" y1="696" y2="696"/>
  <line id="Capline-S" style="fill:none;stroke:#27AAE1;opacity:1;stroke-width:0.5;" x1="263" x2="3036" y1="625.541" y2="625.541"/>
  <g id="H-reference" style="fill:#27AAE1;stroke:none;" transform="matrix(1 0 0 1 339 1126)">
   <path d="M0.993654 0L3.63775 0L29.3281-67.1323L30.0303-67.1323L30.0303-70.459L28.1226-70.459ZM11.6885-24.4799L46.9815-24.4799L46.2315-26.7285L12.4385-26.7285ZM55.1196 0L57.7637 0L30.6382-70.459L29.4326-70.459L29.4326-67.1323Z"/>
  </g>
  <line id="Baseline-M" style="fill:none;stroke:#27AAE1;opacity:1;stroke-width:0.5;" x1="263" x2="3036" y1="1126" y2="1126"/>
  <line id="Capline-M" style="fill:none;stroke:#27AAE1;opacity:1;stroke-width:0.5;" x1="263" x2="3036" y1="1055.54" y2="1055.54"/>
  <g id="H-reference" style="fill:#27AAE1;stroke:none;" transform="matrix(1 0 0 1 339 1556)">
   <path d="M0.993654 0L3.63775 0L29.3281-67.1323L30.0303-67.1323L30.0303-70.459L28.1226-70.459ZM11.6885-24.4799L46.9815-24.4799L46.2315-26.7285L12.4385-26.7285ZM55.1196 0L57.7637 0L30.6382-70.459L29.4326-70.459L29.4326-67.1323Z"/>
  </g>
  <line id="Baseline-L" style="fill:none;stroke:#27AAE1;opacity:1;stroke-width:0.5;" x1="263" x2="3036" y1="1556" y2="1556"/>
  <line id="Capline-L" style="fill:none;stroke:#27AAE1;opacity:1;stroke-width:0.5;" x1="263" x2="3036" y1="1485.54" y2="1485.54"/>
  <line id="left-margin-Ultralight-S" style="fill:none;stroke:#00AEEF;stroke-width:0.5;opacity:1.0;" x1="499.123" x2="499.123" y1="600.785" y2="720.121"/>
  <line id="right-margin-Ultralight-S" style="fill:none;stroke:#00AEEF;stroke-width:0.5;opacity:1.0;" x1="620.3" x2="620.3" y1="600.785" y2="720.121"/>
  <line id="left-margin-Regular-S" style="fill:none;stroke:#00AEEF;stroke-width:0.5;opacity:1.0;" x1="1384.49" x2="1384.49" y1="600.785" y2="720.121"/>
  <line id="right-margin-Regular-S" style="fill:none;stroke:#00AEEF;stroke-width:0.5;opacity:1.0;" x1="1515.2" x2="1515.2" y1="600.785" y2="720.121"/>
  <line id="left-margin-Black-S" style="fill:none;stroke:#00AEEF;stroke-width:0.5;opacity:1.0;" x1="2864.26" x2="2864.26" y1="600.785" y2="720.121"/>
  <line id="right-margin-Black-S" style="fill:none;stroke:#00AEEF;stroke-width:0.5;opacity:1.0;" x1="3002.54" x2="3002.54" y1="600.785" y2="720.121"/>
 </g>
 <g id="Symbols">
  <g id="Black-S" transform="matrix(1 0 0 1 2864.26 696)">
   <path class="monochrome-0 multicolor-0:tintColor hierarchical-0:primary SFSymbolsPreviewWireframe" d="M46.1426-62.207C51.5137-62.207 55.9082-66.6016 55.9082-71.9727C55.9082-77.3438 51.5137-81.7383 46.1426-81.7383C40.7715-81.7383 36.377-77.3438 36.377-71.9727C36.377-66.6016 40.7715-62.207 46.1426-62.207ZM92.0898-62.1582C97.4609-62.1582 101.855-66.5527 101.855-71.9238C101.855-77.2949 97.4609-81.6895 92.0898-81.6895C86.7188-81.6895 82.3242-77.2949 82.3242-71.9238C82.3242-66.5527 86.7188-62.1582 92.0898-62.1582ZM46.0938-23.291C47.3145-23.291 47.9004-22.6074 48.7793-19.7754C50.0488-15.7227 54.3457 1.51367 55.5176 6.54297C56.2012 9.32617 57.7637 10.7422 60.2051 10.7422C63.3301 10.7422 65.2832 7.95898 64.502 4.78516C64.2578 3.75977 58.252-21.0938 57.4219-26.1719C56.5918-31.3477 56.5918-42.7246 56.6406-45.9473C56.7383-47.9004 58.0078-49.4629 59.8633-49.8047C62.0117-50.1953 65.7715-50.3906 69.1895-50.3418C72.6562-50.3418 76.2207-50.1953 78.4668-49.8047C80.3711-49.4141 81.6406-47.9004 81.6895-45.9473C81.7383-42.7246 81.6895-31.3477 80.7617-26.2207C79.8828-21.0938 73.9746 3.71094 73.7305 4.78516C72.8516 7.86133 74.8535 10.7422 77.9785 10.7422C80.3711 10.7422 81.9824 9.32617 82.7148 6.5918C84.082 1.5625 88.1836-15.625 89.5508-19.7266C90.625-22.7539 91.0156-23.291 92.0898-23.291C93.3594-23.291 93.9453-22.6074 94.8242-19.7754C96.0938-15.7227 100.391 1.51367 101.562 6.54297C102.246 9.27734 103.857 10.7422 106.25 10.7422C109.375 10.7422 111.328 7.95898 110.498 4.78516C110.254 3.71094 104.346-21.0938 103.467-26.1719C102.637-31.3477 102.734-42.7246 102.734-46.2891C102.734-48.1445 103.711-49.5605 105.176-49.9512C107.08-50.3906 122.803-52.002 125.098-52.832C127.197-53.5156 128.516-55.3223 128.516-57.373C128.516-59.9121 126.611-62.0117 124.268-62.0117C123.535-62.0117 122.9-61.8652 122.217-61.7188C115.674-60.5469 101.953-59.5215 92.041-59.0332C84.1309-58.7891 75.0488-58.5449 69.3848-58.5449C63.623-58.5449 54.2969-58.7891 46.1426-59.0332C36.4258-59.4238 22.5098-60.4492 15.9668-61.7188C15.0879-61.9141 14.5508-62.0117 14.0137-62.0117C11.6211-62.0117 9.76562-60.0098 9.76562-57.373C9.76562-55.127 11.1816-53.2715 13.2324-52.7832C15.5762-52.2461 31.1035-50.293 33.0566-49.9512C34.5215-49.707 35.5469-48.2422 35.6445-46.2891C35.6934-42.7246 35.6445-31.3477 34.7168-26.2207C33.8379-21.0938 28.0273 3.71094 27.6855 4.78516C26.8066 7.86133 28.8086 10.7422 31.9336 10.7422C34.3262 10.7422 35.8887 9.375 36.6699 6.5918C38.0371 1.5625 42.1387-15.625 43.5059-19.7266C44.5801-22.7539 45.0195-23.291 46.0938-23.291Z"/>
  </g>
  <g id="Regular-S" transform="matrix(1 0 0 1 1384.49 696)">
   <path class="monochrome-0 multicolor-0:tintColor hierarchical-0:primary SFSymbolsPreviewWireframe" d="M43.5059-61.0352C48.2422-61.0352 52.002-64.7949 52.002-69.5312C52.002-74.2188 48.2422-78.0273 43.5059-78.0273C38.8184-78.0273 35.0098-74.2188 35.0098-69.5312C35.0098-64.7949 38.8184-61.0352 43.5059-61.0352ZM87.1094-61.0352C91.8457-61.0352 95.6055-64.7949 95.6055-69.5312C95.6055-74.2188 91.8457-78.0273 87.1094-78.0273C82.4219-78.0273 78.6133-74.2188 78.6133-69.5312C78.6133-64.7949 82.4219-61.0352 87.1094-61.0352ZM43.457-24.6094C45.1172-24.6094 45.8008-23.6328 46.6797-20.752C47.9004-16.9434 52.0508-0.585938 53.1738 4.19922C53.7598 6.68945 55.0293 7.66602 56.8848 7.66602C59.4238 7.66602 60.8887 5.37109 60.2051 2.88086C59.9609 1.85547 54.2969-21.6797 53.5156-26.5625C52.7344-31.4941 52.7344-42.334 52.7832-45.4102C52.8809-48.0957 54.1016-49.3164 56.3965-49.7559C58.5938-50.1465 62.207-50.3418 65.3809-50.293C68.7012-50.293 72.1191-50.1465 74.3652-49.7559C76.6602-49.3164 77.8809-48.0957 77.9297-45.4102C77.9785-42.334 77.9297-31.4941 77.0996-26.5625C76.2695-21.6797 70.6543 1.85547 70.3613 2.88086C69.6777 5.37109 71.2402 7.66602 73.7305 7.66602C75.5371 7.66602 76.8555 6.68945 77.5391 4.19922C78.8086-0.537109 82.7637-16.8457 84.0332-20.752C85.0098-23.5352 85.5469-24.6094 87.1094-24.6094C88.7695-24.6094 89.4531-23.6328 90.332-20.752C91.5527-16.9434 95.6543-0.585938 96.8262 4.19922C97.4121 6.68945 98.7305 7.66602 100.537 7.66602C103.027 7.66602 104.541 5.37109 103.857 2.88086C103.613 1.85547 97.998-21.6797 97.168-26.5625C96.3867-31.4941 96.4844-42.334 96.4844-45.7031C96.4844-47.9492 97.5098-49.4629 99.3652-49.9023C101.221-50.3418 116.064-51.8555 118.164-52.5391C119.775-53.125 120.947-54.4434 120.947-56.25C120.947-58.5449 119.141-59.9121 117.578-59.9121C116.992-59.9121 116.406-59.7656 115.723-59.6191C109.57-58.4961 96.4844-57.5195 87.1094-57.0801C79.4434-56.8359 70.8984-56.6406 65.5762-56.6406C60.1074-56.6406 51.3184-56.8359 43.457-57.0801C34.2773-57.4219 21.0938-58.3984 14.8438-59.6191C14.3066-59.7656 13.6719-59.9121 13.0859-59.9121C11.4258-59.9121 9.76562-58.5449 9.76562-56.25C9.76562-54.4434 10.8398-52.9297 12.5-52.5391C14.6484-52.0996 29.4434-50.2441 31.2988-49.9023C33.1055-49.5605 34.2285-47.9492 34.3262-45.7031C34.375-42.334 34.2773-31.4941 33.4473-26.5625C32.6172-21.6797 27.002 1.85547 26.709 2.88086C26.0254 5.37109 27.5879 7.66602 30.0781 7.66602C31.9336 7.66602 33.2031 6.68945 33.8867 4.19922C35.1562-0.537109 39.1113-16.8457 40.3809-20.752C41.3574-23.5352 41.8945-24.6094 43.457-24.6094Z"/>
  </g>
  <g id="Ultralight-S" transform="matrix(1 0 0 1 499.123 696)">
   <path class="monochrome-0 multicolor-0:tintColor hierarchical-0:primary SFSymbolsPreviewWireframe" d="M40.5088-59.2642C44.7002-59.2642 48.0967-62.6607 48.0967-66.8975C48.0967-71.1309 44.7002-74.4854 40.5088-74.4854C36.2754-74.4854 32.8755-71.1309 32.8755-66.8975C32.8755-62.6607 36.2754-59.2642 40.5088-59.2642ZM80.7066-59.2642C84.9434-59.2642 88.3399-62.6607 88.3399-66.8975C88.3399-71.1309 84.9434-74.4854 80.7066-74.4854C76.4732-74.4854 73.0733-71.1309 73.0733-66.8975C73.0733-62.6607 76.4732-59.2642 80.7066-59.2642ZM40.5054-25.6084C42.0747-25.6084 42.8491-24.4956 43.501-21.978C44.4947-18.3511 48.3272-3.40135 49.541 0.929713C50.0816 2.96585 51.1241 3.94241 52.7525 3.94241C54.8828 3.94241 56.1661 2.01077 55.6187-0.116187C55.3745-1.05076 50.0284-22.6333 49.4742-27.1074C48.92-31.6758 48.6475-41.6528 48.6963-44.6836C48.7486-47.1421 49.6968-48.5444 52.1734-48.8023C54.5069-49.0112 57.5752-49.1611 60.6128-49.1577C63.6607-49.1577 66.6246-49.0112 69.0069-48.8023C71.5288-48.5444 72.4317-47.1421 72.4805-44.6836C72.5293-41.6528 72.2535-31.6758 71.6958-27.1074C71.1836-22.6333 65.8409-1.05076 65.5933-0.116187C65.0459 2.01077 66.336 3.94241 68.4175 3.94241C70.0425 3.94241 71.0884 2.96585 71.6358 0.929713C72.8599-3.39793 76.6788-18.3442 77.6758-21.978C78.3799-24.4888 79.1441-25.6084 80.7066-25.6084C82.2759-25.6084 83.0503-24.4956 83.7476-21.978C84.7413-18.3511 88.5704-3.40135 89.7877 0.929713C90.3282 2.96585 91.3287 3.94241 92.9537 3.94241C95.0806 3.94241 96.3673 2.01077 95.8199-0.116187C95.5757-1.05076 90.233-22.6333 89.6754-27.1074C89.1666-31.6758 88.8555-41.6528 88.9009-44.7041C88.9463-47.1318 89.8809-48.3731 91.8726-48.7217C93.5464-49.0703 107.073-50.8565 108.81-51.1314C110.466-51.4448 111.411-52.7632 111.411-54.3428C111.411-56.1836 110.149-57.4146 108.587-57.4146C107.819-57.4146 107.097-57.2681 106.05-57.0762C101.26-56.1348 89.128-55.0674 80.7066-54.9004C72.3594-54.7471 65.1314-54.7334 60.6265-54.7334C56.0659-54.7334 48.8662-54.7471 40.5054-54.9004C32.0523-55.0606 19.9131-56.1279 15.1162-57.0762C14.125-57.2681 13.3994-57.4146 12.6318-57.4146C11.0625-57.4146 9.76562-56.1836 9.76562-54.3428C9.76562-52.7632 10.749-51.4312 12.4092-51.1314C14.1489-50.8281 27.627-49.0635 29.3008-48.7217C31.2891-48.3799 32.2305-47.1318 32.2827-44.7041C32.3316-41.6528 32.0523-31.6758 31.4946-27.1074C30.937-22.6333 25.5942-1.05076 25.3467-0.116187C24.7993 2.01077 26.0894 3.94241 28.2163 3.94241C29.8447 3.94241 30.8872 2.96585 31.4346 0.929713C32.6587-3.39793 36.4776-18.3442 37.4746-21.978C38.1333-24.4888 38.9429-25.6084 40.5054-25.6084Z"/>
  </g>
 </g>
</svg>
